STARTFONT 2.1
COMMENT
COMMENT Converted from OpenType font "neuropolitical rg.otf" by "otf2bdf 3.0".
COMMENT
FONT -FreeType-Neuropolitical Rg-Medium-R-Normal--19-140-100-100-P-129-ISO10646-1
SIZE 14 100 100
FONTBOUNDINGBOX 29 25 -2 -5
STARTPROPERTIES 19
FOUNDRY "FreeType"
FAMILY_NAME "Neuropolitical Rg"
WEIGHT_NAME "Medium"
SLANT "R"
SETWIDTH_NAME "Normal"
ADD_STYLE_NAME ""
PIXEL_SIZE 19
POINT_SIZE 140
RESOLUTION_X 100
RESOLUTION_Y 100
SPACING "P"
AVERAGE_WIDTH 129
CHARSET_REGISTRY "ISO10646"
CHARSET_ENCODING "1"
FONT_ASCENT 18
FONT_DESCENT 4
COPYRIGHT "(c) 1999-2011 Typodermic Fonts. www.typodermic.com/license.html - Design: Ray Larabie Languages & kerning: Chikako Larabie"
_OTF_FONTFILE "neuropolitical rg.otf"
_OTF_PSNAME "NeuropoliticalRg-Regular"
ENDPROPERTIES
CHARS 385
STARTCHAR 0017
ENCODING 23
SWIDTH 411 0
DWIDTH 8 0
BBX 0 0 0 0
BITMAP
ENDCHAR
STARTCHAR 0020
ENCODING 32
SWIDTH 411 0
DWIDTH 8 0
BBX 0 0 0 0
BITMAP
ENDCHAR
STARTCHAR 0021
ENCODING 33
SWIDTH 308 0
DWIDTH 6 0
BBX 3 14 1 0
BITMAP
E0
E0
E0
E0
E0
E0
E0
E0
E0
E0
00
E0
E0
E0
ENDCHAR
STARTCHAR 0022
ENCODING 34
SWIDTH 411 0
DWIDTH 8 0
BBX 6 5 1 9
BITMAP
CC
CC
CC
CC
CC
ENDCHAR
STARTCHAR 0023
ENCODING 35
SWIDTH 668 0
DWIDTH 13 0
BBX 11 14 1 0
BITMAP
18C0
1880
1180
FFE0
FFE0
3180
3180
3180
3180
FFE0
FFC0
6300
6300
6300
ENDCHAR
STARTCHAR 0024
ENCODING 36
SWIDTH 822 0
DWIDTH 16 0
BBX 14 16 1 -1
BITMAP
0300
7F00
FF00
FF00
E300
E300
E300
FFF8
7FFC
031C
030C
030C
031C
FFFC
FFF8
0300
ENDCHAR
STARTCHAR 0025
ENCODING 37
SWIDTH 1028 0
DWIDTH 20 0
BBX 18 14 1 0
BITMAP
7E0E00
FF0C00
C31800
C33800
C33000
FF6000
3CE000
00CF80
019FC0
039040
031040
061040
0E1FC0
0C1FC0
ENDCHAR
STARTCHAR 0026
ENCODING 38
SWIDTH 925 0
DWIDTH 18 0
BBX 17 14 1 0
BITMAP
3FE000
7FF000
703000
703000
703000
3BF000
3FC000
FF0600
E38600
E1EE00
E07E00
E03C00
FFFE00
7FF780
ENDCHAR
STARTCHAR 0027
ENCODING 39
SWIDTH 205 0
DWIDTH 4 0
BBX 2 5 1 9
BITMAP
C0
C0
C0
C0
C0
ENDCHAR
STARTCHAR 0028
ENCODING 40
SWIDTH 360 0
DWIDTH 7 0
BBX 5 22 2 -5
BITMAP
18
78
E0
C0
C0
C0
C0
C0
C0
C0
C0
C0
C0
C0
C0
C0
C0
C0
C0
E0
78
18
ENDCHAR
STARTCHAR 0029
ENCODING 41
SWIDTH 360 0
DWIDTH 7 0
BBX 5 22 0 -5
BITMAP
C0
F0
30
18
18
18
18
18
18
18
18
18
18
18
18
18
18
18
18
30
F0
C0
ENDCHAR
STARTCHAR 002A
ENCODING 42
SWIDTH 565 0
DWIDTH 11 0
BBX 9 9 1 6
BITMAP
0800
0800
0800
EB80
7F00
1C00
3600
6300
2200
ENDCHAR
STARTCHAR 002B
ENCODING 43
SWIDTH 565 0
DWIDTH 11 0
BBX 9 9 1 2
BITMAP
0C00
0C00
0C00
FF80
FF80
0C00
0C00
0C00
0C00
ENDCHAR
STARTCHAR 002C
ENCODING 44
SWIDTH 257 0
DWIDTH 5 0
BBX 3 5 1 -2
BITMAP
E0
E0
C0
C0
C0
ENDCHAR
STARTCHAR 002D
ENCODING 45
SWIDTH 411 0
DWIDTH 8 0
BBX 6 2 1 5
BITMAP
FC
FC
ENDCHAR
STARTCHAR 002E
ENCODING 46
SWIDTH 257 0
DWIDTH 5 0
BBX 3 3 1 0
BITMAP
E0
E0
E0
ENDCHAR
STARTCHAR 002F
ENCODING 47
SWIDTH 514 0
DWIDTH 10 0
BBX 10 16 0 -2
BITMAP
01C0
0180
0380
0300
0700
0600
0E00
0C00
0C00
1800
1800
3000
3000
7000
6000
E000
ENDCHAR
STARTCHAR 0030
ENCODING 48
SWIDTH 874 0
DWIDTH 17 0
BBX 15 14 1 0
BITMAP
3FF8
7FFE
FFFE
E00E
E00E
E00E
E00E
E00E
E00E
E00E
E00E
FFFE
7FFE
3FF8
ENDCHAR
STARTCHAR 0031
ENCODING 49
SWIDTH 257 0
DWIDTH 5 0
BBX 3 14 1 0
BITMAP
E0
E0
E0
E0
E0
E0
E0
E0
E0
E0
E0
E0
E0
E0
ENDCHAR
STARTCHAR 0032
ENCODING 50
SWIDTH 925 0
DWIDTH 18 0
BBX 16 14 1 0
BITMAP
01FC
01FE
01FF
0007
0007
0007
7FFE
FFFE
E000
E000
E000
FFFF
FFFF
FFFF
ENDCHAR
STARTCHAR 0033
ENCODING 51
SWIDTH 925 0
DWIDTH 18 0
BBX 16 14 1 0
BITMAP
01FC
01FE
000E
0007
0006
000E
FFFE
FFFE
0007
0007
0007
000F
FFFE
FFFC
ENDCHAR
STARTCHAR 0034
ENCODING 52
SWIDTH 977 0
DWIDTH 19 0
BBX 16 14 1 0
BITMAP
E007
E007
E007
E007
E007
E007
E007
FFFF
FFFF
FFFF
0007
0007
0007
0007
ENDCHAR
STARTCHAR 0035
ENCODING 53
SWIDTH 925 0
DWIDTH 18 0
BBX 16 14 1 0
BITMAP
FFC0
FFC0
FFC0
E000
E000
E000
FFFE
FFFF
0007
0003
0003
FFFF
FFFF
FFFE
ENDCHAR
STARTCHAR 0036
ENCODING 54
SWIDTH 925 0
DWIDTH 18 0
BBX 16 14 1 0
BITMAP
3F80
7F80
FF80
E000
E000
E000
FFFE
FFFF
E007
E007
E007
F807
7FFF
3FFE
ENDCHAR
STARTCHAR 0037
ENCODING 55
SWIDTH 925 0
DWIDTH 18 0
BBX 16 14 1 0
BITMAP
FFFF
FFFF
FFFE
001E
003C
0038
0070
00F0
01E0
03C0
0380
0780
0F00
1E00
ENDCHAR
STARTCHAR 0038
ENCODING 56
SWIDTH 925 0
DWIDTH 18 0
BBX 16 14 1 0
BITMAP
7FFC
FFFE
F01E
E006
E006
E00E
7FFE
7FFE
E006
E007
E007
F00F
FFFE
7FFC
ENDCHAR
STARTCHAR 0039
ENCODING 57
SWIDTH 925 0
DWIDTH 18 0
BBX 16 14 1 0
BITMAP
7FFC
FFFE
FFFF
E007
E007
E007
E007
FFFF
7FFF
0007
0007
000F
01FF
01FC
ENDCHAR
STARTCHAR 003A
ENCODING 58
SWIDTH 257 0
DWIDTH 5 0
BBX 3 10 1 0
BITMAP
E0
E0
E0
00
00
00
00
E0
E0
E0
ENDCHAR
STARTCHAR 003B
ENCODING 59
SWIDTH 257 0
DWIDTH 5 0
BBX 3 12 1 -2
BITMAP
E0
E0
E0
00
00
00
00
E0
E0
E0
C0
C0
ENDCHAR
STARTCHAR 003C
ENCODING 60
SWIDTH 565 0
DWIDTH 11 0
BBX 9 11 1 1
BITMAP
0080
0380
0F00
1C00
7800
E000
7800
1E00
0700
0380
0080
ENDCHAR
STARTCHAR 003D
ENCODING 61
SWIDTH 565 0
DWIDTH 11 0
BBX 9 7 1 3
BITMAP
FF80
FF80
0000
0000
0000
FF80
FF80
ENDCHAR
STARTCHAR 003E
ENCODING 62
SWIDTH 565 0
DWIDTH 11 0
BBX 9 11 1 1
BITMAP
8000
E000
7800
1E00
0780
0180
0780
1E00
7800
E000
8000
ENDCHAR
STARTCHAR 003F
ENCODING 63
SWIDTH 617 0
DWIDTH 12 0
BBX 10 14 1 0
BITMAP
1F80
1FC0
1FC0
01C0
01C0
01C0
7FC0
FF80
E000
E000
0000
E000
E000
E000
ENDCHAR
STARTCHAR 0040
ENCODING 64
SWIDTH 720 0
DWIDTH 14 0
BBX 12 15 1 -3
BITMAP
7FE0
FFF0
C030
C030
C7F0
C7F0
C630
CE30
C630
C7F0
C3E0
C000
C000
FE00
7E00
ENDCHAR
STARTCHAR 0041
ENCODING 65
SWIDTH 1028 0
DWIDTH 20 0
BBX 20 14 0 0
BITMAP
007000
00F000
01F800
01FC00
039C00
079E00
070E00
0F0700
0E0780
1FFF80
3FFFC0
3801C0
7000E0
F000F0
ENDCHAR
STARTCHAR 0042
ENCODING 66
SWIDTH 874 0
DWIDTH 17 0
BBX 16 14 1 0
BITMAP
FFFC
FFFE
E00E
E006
E006
E006
FFFE
FFFE
E007
E007
E007
E00F
FFFE
FFFC
ENDCHAR
STARTCHAR 0043
ENCODING 67
SWIDTH 822 0
DWIDTH 16 0
BBX 14 14 1 0
BITMAP
3FFC
7FFC
FFFC
E000
E000
E000
E000
E000
E000
E000
E000
FFFC
7FFC
3FFC
ENDCHAR
STARTCHAR 0044
ENCODING 68
SWIDTH 925 0
DWIDTH 18 0
BBX 16 14 1 0
BITMAP
FFFC
FFFE
FFFE
E007
E007
E007
E007
E007
E007
E007
E007
FFFE
FFFE
FFFC
ENDCHAR
STARTCHAR 0045
ENCODING 69
SWIDTH 822 0
DWIDTH 16 0
BBX 14 14 1 0
BITMAP
3F00
7F00
FF00
E000
E000
E000
FFFC
FFFC
E000
E000
E000
FFFC
7FFC
3FFC
ENDCHAR
STARTCHAR 0046
ENCODING 70
SWIDTH 822 0
DWIDTH 16 0
BBX 14 14 1 0
BITMAP
3F00
7F00
FF00
E000
E000
E000
FFFC
FFFC
FFFC
E000
E000
E000
E000
E000
ENDCHAR
STARTCHAR 0047
ENCODING 71
SWIDTH 874 0
DWIDTH 17 0
BBX 15 14 1 0
BITMAP
3F80
7F80
FF80
E000
E000
E000
E00E
E00E
E00E
E00E
E00E
FFFE
7FFE
3FFC
ENDCHAR
STARTCHAR 0048
ENCODING 72
SWIDTH 925 0
DWIDTH 18 0
BBX 16 14 1 0
BITMAP
E007
E007
E007
E007
E007
E007
FFFF
FFFF
FFFF
E007
E007
E007
E007
E007
ENDCHAR
STARTCHAR 0049
ENCODING 73
SWIDTH 257 0
DWIDTH 5 0
BBX 3 14 1 0
BITMAP
E0
E0
E0
E0
E0
E0
E0
E0
E0
E0
E0
E0
E0
E0
ENDCHAR
STARTCHAR 004A
ENCODING 74
SWIDTH 514 0
DWIDTH 10 0
BBX 9 14 0 0
BITMAP
0380
0380
0380
0380
0380
0380
0380
0380
0380
0380
0380
FF80
FF00
FE00
ENDCHAR
STARTCHAR 004B
ENCODING 75
SWIDTH 822 0
DWIDTH 16 0
BBX 14 14 1 0
BITMAP
E03C
E078
E0F0
E1C0
E780
EF00
FE00
FE00
E780
E3C0
E1E0
E0F0
E078
E03C
ENDCHAR
STARTCHAR 004C
ENCODING 76
SWIDTH 771 0
DWIDTH 15 0
BBX 13 14 1 0
BITMAP
E000
E000
E000
E000
E000
E000
E000
E000
E000
E000
E000
FFF8
7FF8
3FF8
ENDCHAR
STARTCHAR 004D
ENCODING 77
SWIDTH 1182 0
DWIDTH 23 0
BBX 21 14 1 0
BITMAP
E00038
F00038
F00078
F800F8
FC01F8
FE01F8
EE03B8
E70738
E78F38
E3CE38
E1DC38
E0F838
E0F838
E07038
ENDCHAR
STARTCHAR 004E
ENCODING 78
SWIDTH 925 0
DWIDTH 18 0
BBX 16 14 1 0
BITMAP
E007
F007
F807
FC07
FE07
EF07
E787
E3C7
E1E7
E0F7
E07F
E03F
E01F
E00E
ENDCHAR
STARTCHAR 004F
ENCODING 79
SWIDTH 874 0
DWIDTH 17 0
BBX 15 14 1 0
BITMAP
3FF8
7FFE
FFFE
E00E
E00E
E00E
E00E
E00E
E00E
E00E
E00E
FFFE
7FFE
3FF8
ENDCHAR
STARTCHAR 0050
ENCODING 80
SWIDTH 874 0
DWIDTH 17 0
BBX 16 14 1 0
BITMAP
FFFC
FFFE
FFFF
E007
E007
E007
E007
E00F
FFFE
FFFC
E000
E000
E000
E000
ENDCHAR
STARTCHAR 0051
ENCODING 81
SWIDTH 874 0
DWIDTH 17 0
BBX 16 16 1 -2
BITMAP
3FF8
7FFE
FFFE
E00E
E00E
E00E
E00E
E00E
E00E
E00E
E00E
F01E
7FFE
3FFC
001E
000F
ENDCHAR
STARTCHAR 0052
ENCODING 82
SWIDTH 925 0
DWIDTH 18 0
BBX 16 14 1 0
BITMAP
FFFC
FFFE
FFFF
E007
E007
E007
E00F
FFFE
FFFC
EF80
E7C0
E1F0
E078
E03E
ENDCHAR
STARTCHAR 0053
ENCODING 83
SWIDTH 822 0
DWIDTH 16 0
BBX 14 14 1 0
BITMAP
7F00
FF00
FF00
C000
C000
E000
FFF8
7FFC
001C
001C
001C
FFFC
FFFC
FFF8
ENDCHAR
STARTCHAR 0054
ENCODING 84
SWIDTH 771 0
DWIDTH 15 0
BBX 14 14 0 0
BITMAP
FFFC
FFFC
FFFC
0380
0380
0380
0380
0380
0380
0380
0380
0380
0380
0380
ENDCHAR
STARTCHAR 0055
ENCODING 85
SWIDTH 874 0
DWIDTH 17 0
BBX 15 14 1 0
BITMAP
E00E
E00E
E00E
E00E
E00E
E00E
E00E
E00E
E00E
E00E
E00E
FFFE
7FFE
3FF8
ENDCHAR
STARTCHAR 0056
ENCODING 86
SWIDTH 1028 0
DWIDTH 20 0
BBX 19 14 0 0
BITMAP
F000E0
7801E0
3801C0
3C03C0
1C0380
1E0700
0F0F00
070E00
079E00
039C00
03F800
01F800
00F000
00E000
ENDCHAR
STARTCHAR 0057
ENCODING 87
SWIDTH 1337 0
DWIDTH 26 0
BBX 26 14 0 0
BITMAP
F00E03C0
701E0380
701F0380
383F0700
383F0700
3C738F00
1C738E00
1CE1CE00
0EE1DC00
0EC1FC00
0FC0F800
07C0F800
07807800
03007000
ENDCHAR
STARTCHAR 0058
ENCODING 88
SWIDTH 1028 0
DWIDTH 20 0
BBX 18 14 1 0
BITMAP
F003C0
780780
3C0F00
1E3C00
0F7800
07F000
03E000
03F000
07F800
0F3C00
1E1E00
3C0F00
780780
F003C0
ENDCHAR
STARTCHAR 0059
ENCODING 89
SWIDTH 977 0
DWIDTH 19 0
BBX 17 14 1 0
BITMAP
F00780
780F00
3C1E00
1E3C00
0F7800
07F000
03E000
01C000
01C000
01C000
01C000
01C000
01C000
01C000
ENDCHAR
STARTCHAR 005A
ENCODING 90
SWIDTH 822 0
DWIDTH 16 0
BBX 15 14 1 0
BITMAP
FFFC
FFFC
FFFC
0078
00F0
01E0
03C0
0F80
1F00
3E00
7800
FFFE
FFFE
FFFE
ENDCHAR
STARTCHAR 005B
ENCODING 91
SWIDTH 360 0
DWIDTH 7 0
BBX 5 22 2 -5
BITMAP
F8
F8
C0
C0
C0
C0
C0
C0
C0
C0
C0
C0
C0
C0
C0
C0
C0
C0
C0
C0
F8
F8
ENDCHAR
STARTCHAR 005C
ENCODING 92
SWIDTH 514 0
DWIDTH 10 0
BBX 10 16 0 -2
BITMAP
E000
6000
7000
3000
3000
1800
1800
0C00
0C00
0E00
0600
0700
0300
0380
0180
01C0
ENDCHAR
STARTCHAR 005D
ENCODING 93
SWIDTH 360 0
DWIDTH 7 0
BBX 5 22 0 -5
BITMAP
F8
F8
18
18
18
18
18
18
18
18
18
18
18
18
18
18
18
18
18
18
F8
F8
ENDCHAR
STARTCHAR 005E
ENCODING 94
SWIDTH 617 0
DWIDTH 12 0
BBX 10 10 1 4
BITMAP
0C00
1E00
1E00
1E00
3300
3300
6180
6180
E1C0
C0C0
ENDCHAR
STARTCHAR 005F
ENCODING 95
SWIDTH 668 0
DWIDTH 13 0
BBX 13 2 0 -3
BITMAP
FFF8
FFF8
ENDCHAR
STARTCHAR 0060
ENCODING 96
SWIDTH 411 0
DWIDTH 8 0
BBX 4 4 2 12
BITMAP
C0
E0
70
30
ENDCHAR
STARTCHAR 0061
ENCODING 97
SWIDTH 822 0
DWIDTH 16 0
BBX 14 11 1 0
BITMAP
01F0
01FC
001C
001C
7FFC
FFFC
E01C
E01C
E01C
FFFC
7FF8
ENDCHAR
STARTCHAR 0062
ENCODING 98
SWIDTH 822 0
DWIDTH 16 0
BBX 14 14 1 0
BITMAP
E000
E000
E000
E000
FFF8
FFFC
E01C
E01C
E01C
E01C
E01C
F03C
7FF8
3FF0
ENDCHAR
STARTCHAR 0063
ENCODING 99
SWIDTH 771 0
DWIDTH 15 0
BBX 13 10 1 0
BITMAP
7FF8
FFF8
E000
E000
E000
E000
E000
F000
7FF8
3FF8
ENDCHAR
STARTCHAR 0064
ENCODING 100
SWIDTH 822 0
DWIDTH 16 0
BBX 14 14 1 0
BITMAP
001C
001C
001C
001C
7FFC
FFFC
E01C
E01C
E01C
E01C
E01C
F03C
7FF8
3FF0
ENDCHAR
STARTCHAR 0065
ENCODING 101
SWIDTH 822 0
DWIDTH 16 0
BBX 14 10 1 0
BITMAP
7FF8
FFFC
E01C
E01C
FFFC
FFFC
E000
E000
7F00
3F00
ENDCHAR
STARTCHAR 0066
ENCODING 102
SWIDTH 411 0
DWIDTH 8 0
BBX 7 14 1 0
BITMAP
7E
FE
E0
E0
FE
FE
E0
E0
E0
E0
E0
E0
E0
E0
ENDCHAR
STARTCHAR 0067
ENCODING 103
SWIDTH 822 0
DWIDTH 16 0
BBX 14 13 1 -3
BITMAP
7FF8
FFF8
E01C
E01C
E01C
E01C
E01C
FFFC
7FFC
001C
001C
03FC
03F8
ENDCHAR
STARTCHAR 0068
ENCODING 104
SWIDTH 822 0
DWIDTH 16 0
BBX 14 14 1 0
BITMAP
E000
E000
E000
E000
FFF8
FFFC
E01C
E01C
E01C
E01C
E01C
E01C
E01C
E01C
ENDCHAR
STARTCHAR 0069
ENCODING 105
SWIDTH 257 0
DWIDTH 5 0
BBX 3 14 1 0
BITMAP
E0
E0
E0
00
E0
E0
E0
E0
E0
E0
E0
E0
E0
E0
ENDCHAR
STARTCHAR 006A
ENCODING 106
SWIDTH 308 0
DWIDTH 6 0
BBX 5 17 -1 -3
BITMAP
38
38
18
00
38
38
38
38
38
38
38
38
38
38
78
F8
F0
ENDCHAR
STARTCHAR 006B
ENCODING 107
SWIDTH 720 0
DWIDTH 14 0
BBX 13 14 1 0
BITMAP
E000
E000
E000
E078
E0F0
E1C0
E780
EF00
FC00
EF00
E780
E3C0
E1E0
E070
ENDCHAR
STARTCHAR 006C
ENCODING 108
SWIDTH 257 0
DWIDTH 5 0
BBX 3 14 1 0
BITMAP
E0
E0
E0
E0
E0
E0
E0
E0
E0
E0
E0
E0
E0
E0
ENDCHAR
STARTCHAR 006D
ENCODING 109
SWIDTH 1131 0
DWIDTH 22 0
BBX 20 10 1 0
BITMAP
7FBFE0
FFFFE0
E0E0F0
E06070
E06070
E06070
E06070
E06070
E06070
E06070
ENDCHAR
STARTCHAR 006E
ENCODING 110
SWIDTH 822 0
DWIDTH 16 0
BBX 14 10 1 0
BITMAP
7FF8
FFF8
E03C
E01C
E01C
E01C
E01C
E01C
E01C
E01C
ENDCHAR
STARTCHAR 006F
ENCODING 111
SWIDTH 822 0
DWIDTH 16 0
BBX 14 10 1 0
BITMAP
7FF8
FFF8
E03C
E01C
E01C
E01C
E01C
F078
7FF8
3FF0
ENDCHAR
STARTCHAR 0070
ENCODING 112
SWIDTH 822 0
DWIDTH 16 0
BBX 14 13 1 -3
BITMAP
7FF8
FFF8
E01C
E01C
E01C
E01C
E01C
E07C
FFF8
FFF0
E000
E000
E000
ENDCHAR
STARTCHAR 0071
ENCODING 113
SWIDTH 822 0
DWIDTH 16 0
BBX 14 13 1 -3
BITMAP
7FF8
FFF8
E01C
E01C
E01C
E01C
E01C
F01C
7FFC
3FFC
001C
001C
001C
ENDCHAR
STARTCHAR 0072
ENCODING 114
SWIDTH 462 0
DWIDTH 9 0
BBX 7 10 1 0
BITMAP
3E
7E
E0
E0
E0
E0
E0
E0
E0
E0
ENDCHAR
STARTCHAR 0073
ENCODING 115
SWIDTH 720 0
DWIDTH 14 0
BBX 13 10 1 0
BITMAP
FE00
FE00
E000
E000
FFF0
7FF0
0038
0078
FFF0
FFF0
ENDCHAR
STARTCHAR 0074
ENCODING 116
SWIDTH 411 0
DWIDTH 8 0
BBX 8 14 0 0
BITMAP
38
38
38
FF
FF
38
38
38
38
38
38
38
38
38
ENDCHAR
STARTCHAR 0075
ENCODING 117
SWIDTH 822 0
DWIDTH 16 0
BBX 14 11 1 0
BITMAP
E01C
E01C
E01C
E01C
E01C
E01C
E01C
E01C
F878
7FF8
3FF0
ENDCHAR
STARTCHAR 0076
ENCODING 118
SWIDTH 925 0
DWIDTH 18 0
BBX 17 11 1 0
BITMAP
E00780
F00700
700E00
381E00
3C1C00
1C3800
0E7800
0F7000
07E000
03C000
01C000
ENDCHAR
STARTCHAR 0077
ENCODING 119
SWIDTH 1080 0
DWIDTH 21 0
BBX 21 11 0 0
BITMAP
E03038
707838
70F870
38F870
38DCE0
39CCE0
1D8EC0
1F87C0
0F07C0
0F0780
060300
ENDCHAR
STARTCHAR 0078
ENCODING 120
SWIDTH 771 0
DWIDTH 15 0
BBX 13 11 1 0
BITMAP
E078
70F0
38E0
1DC0
0F80
0F00
1F80
3DC0
38E0
70F0
E078
ENDCHAR
STARTCHAR 0079
ENCODING 121
SWIDTH 822 0
DWIDTH 16 0
BBX 14 14 1 -3
BITMAP
E01C
E01C
E01C
E01C
E01C
E01C
E01C
F01C
7FFC
3FFC
001C
001C
03FC
03F8
ENDCHAR
STARTCHAR 007A
ENCODING 122
SWIDTH 720 0
DWIDTH 14 0
BBX 12 10 1 0
BITMAP
FFF0
FFE0
01C0
0380
0700
1E00
3C00
7000
FFF0
FFF0
ENDCHAR
STARTCHAR 007B
ENCODING 123
SWIDTH 308 0
DWIDTH 6 0
BBX 6 21 0 -4
BITMAP
0C
3C
30
30
30
30
30
30
30
30
F0
F0
30
30
30
30
30
30
30
3C
1C
ENDCHAR
STARTCHAR 007C
ENCODING 124
SWIDTH 257 0
DWIDTH 5 0
BBX 2 21 2 -4
BITMAP
C0
C0
C0
C0
C0
C0
C0
C0
C0
C0
C0
C0
C0
C0
C0
C0
C0
C0
C0
C0
C0
ENDCHAR
STARTCHAR 007D
ENCODING 125
SWIDTH 308 0
DWIDTH 6 0
BBX 6 21 0 -4
BITMAP
E0
F0
30
30
30
30
30
30
30
30
1C
3C
30
30
30
30
30
30
30
F0
F0
ENDCHAR
STARTCHAR 007E
ENCODING 126
SWIDTH 565 0
DWIDTH 11 0
BBX 9 3 1 5
BITMAP
7000
FF80
8700
ENDCHAR
STARTCHAR 00A0
ENCODING 160
SWIDTH 411 0
DWIDTH 8 0
BBX 0 0 0 0
BITMAP
ENDCHAR
STARTCHAR 00A1
ENCODING 161
SWIDTH 308 0
DWIDTH 6 0
BBX 3 14 1 0
BITMAP
E0
E0
E0
00
E0
E0
E0
E0
E0
E0
E0
E0
E0
E0
ENDCHAR
STARTCHAR 00A2
ENCODING 162
SWIDTH 720 0
DWIDTH 14 0
BBX 13 14 1 0
BITMAP
0300
0300
7FF8
FFF8
E300
E300
E300
E300
E300
E300
FFF8
7FF8
0300
0300
ENDCHAR
STARTCHAR 00A3
ENCODING 163
SWIDTH 822 0
DWIDTH 16 0
BBX 16 14 0 0
BITMAP
0FC0
1FC0
3E00
3800
3800
3800
3FFE
3FFE
3800
3800
3800
3800
FFFF
FFFF
ENDCHAR
STARTCHAR 00A4
ENCODING 164
SWIDTH 720 0
DWIDTH 14 0
BBX 12 13 1 0
BITMAP
8010
C030
6060
3FC0
1FC0
10C0
10C0
10C0
1FC0
3FC0
6060
C030
8010
ENDCHAR
STARTCHAR 00A5
ENCODING 165
SWIDTH 874 0
DWIDTH 17 0
BBX 15 14 1 0
BITMAP
E00E
701C
7838
3C78
1EF0
0FE0
07C0
7FFC
7FFC
0380
7FFC
7FFC
0380
0380
ENDCHAR
STARTCHAR 00A6
ENCODING 166
SWIDTH 257 0
DWIDTH 5 0
BBX 2 21 2 -4
BITMAP
C0
C0
C0
C0
C0
C0
C0
C0
C0
00
00
00
C0
C0
C0
C0
C0
C0
C0
C0
C0
ENDCHAR
STARTCHAR 00A7
ENCODING 167
SWIDTH 720 0
DWIDTH 14 0
BBX 12 18 1 -4
BITMAP
7F00
FF00
E000
C000
C000
C000
FFE0
FFF0
C070
C070
E070
FFF0
7FF0
0070
0070
0070
FFF0
FFE0
ENDCHAR
STARTCHAR 00A8
ENCODING 168
SWIDTH 514 0
DWIDTH 10 0
BBX 8 3 1 11
BITMAP
E7
E7
E7
ENDCHAR
STARTCHAR 00A9
ENCODING 169
SWIDTH 874 0
DWIDTH 17 0
BBX 15 14 1 0
BITMAP
3FF8
701C
C006
C006
8FE6
8806
8806
8806
8806
8FE6
8006
C006
601C
3FF8
ENDCHAR
STARTCHAR 00AA
ENCODING 170
SWIDTH 514 0
DWIDTH 10 0
BBX 8 5 1 6
BITMAP
0F
03
FF
C3
FF
ENDCHAR
STARTCHAR 00AB
ENCODING 171
SWIDTH 565 0
DWIDTH 11 0
BBX 11 9 0 2
BITMAP
0820
1860
39E0
7380
C300
7380
39E0
1860
0820
ENDCHAR
STARTCHAR 00AC
ENCODING 172
SWIDTH 565 0
DWIDTH 11 0
BBX 9 8 1 0
BITMAP
FF80
FF80
0180
0180
0180
0180
0180
0180
ENDCHAR
STARTCHAR 00AE
ENCODING 174
SWIDTH 874 0
DWIDTH 17 0
BBX 15 14 1 0
BITMAP
3FF8
701C
C006
C006
8FE6
8826
8826
8FE6
8B06
88C6
C006
C006
601C
3FF8
ENDCHAR
STARTCHAR 00AF
ENCODING 175
SWIDTH 668 0
DWIDTH 13 0
BBX 10 2 1 13
BITMAP
FFC0
FFC0
ENDCHAR
STARTCHAR 00B0
ENCODING 176
SWIDTH 462 0
DWIDTH 9 0
BBX 7 7 1 7
BITMAP
FC
FE
C6
C6
C6
FE
FC
ENDCHAR
STARTCHAR 00B1
ENCODING 177
SWIDTH 565 0
DWIDTH 11 0
BBX 9 12 1 0
BITMAP
0C00
0C00
0C00
0C00
FF80
FF80
0C00
0C00
0C00
0000
FF80
FF80
ENDCHAR
STARTCHAR 00B2
ENCODING 178
SWIDTH 514 0
DWIDTH 10 0
BBX 8 7 1 7
BITMAP
1E
1F
03
FE
80
FF
FF
ENDCHAR
STARTCHAR 00B3
ENCODING 179
SWIDTH 462 0
DWIDTH 9 0
BBX 8 7 1 7
BITMAP
1E
07
03
FE
03
03
FE
ENDCHAR
STARTCHAR 00B4
ENCODING 180
SWIDTH 411 0
DWIDTH 8 0
BBX 5 4 1 12
BITMAP
38
30
70
E0
ENDCHAR
STARTCHAR 00B6
ENCODING 182
SWIDTH 874 0
DWIDTH 17 0
BBX 15 17 1 -3
BITMAP
7FFE
FFFE
C38E
C38E
C38E
C38E
C38E
FF8E
7F8E
038E
038E
038E
038E
038E
038E
038E
038E
ENDCHAR
STARTCHAR 00B7
ENCODING 183
SWIDTH 257 0
DWIDTH 5 0
BBX 3 3 1 5
BITMAP
E0
E0
E0
ENDCHAR
STARTCHAR 00B8
ENCODING 184
SWIDTH 257 0
DWIDTH 5 0
BBX 3 4 1 -4
BITMAP
60
E0
E0
C0
ENDCHAR
STARTCHAR 00B9
ENCODING 185
SWIDTH 205 0
DWIDTH 4 0
BBX 2 7 1 7
BITMAP
C0
C0
C0
C0
C0
C0
C0
ENDCHAR
STARTCHAR 00BA
ENCODING 186
SWIDTH 514 0
DWIDTH 10 0
BBX 8 6 1 6
BITMAP
3C
FF
C3
C3
FF
7E
ENDCHAR
STARTCHAR 00BB
ENCODING 187
SWIDTH 565 0
DWIDTH 11 0
BBX 11 9 0 2
BITMAP
8200
C300
F380
39C0
1860
39C0
F380
C300
8200
ENDCHAR
STARTCHAR 00BC
ENCODING 188
SWIDTH 925 0
DWIDTH 18 0
BBX 16 14 1 0
BITMAP
6060
60E0
60C0
6180
6380
6300
6600
0EC3
0CC3
18C3
38C3
30FF
60FF
E003
ENDCHAR
STARTCHAR 00BD
ENCODING 189
SWIDTH 822 0
DWIDTH 16 0
BBX 14 14 1 0
BITMAP
6060
60E0
60C0
6180
6380
6300
6600
0E3C
0C3C
1804
39FC
3300
63FC
E3FC
ENDCHAR
STARTCHAR 00BE
ENCODING 190
SWIDTH 1131 0
DWIDTH 22 0
BBX 20 14 1 0
BITMAP
0F0600
030C00
031C00
FF1800
033000
037000
FF6000
00D830
01D830
019830
031830
071FF0
061FF0
0C0030
ENDCHAR
STARTCHAR 00BF
ENCODING 191
SWIDTH 617 0
DWIDTH 12 0
BBX 10 14 1 0
BITMAP
01C0
01C0
01C0
0000
01C0
01C0
7F80
FF80
C000
C000
C000
E000
FE00
7E00
ENDCHAR
STARTCHAR 00C0
ENCODING 192
SWIDTH 1028 0
DWIDTH 20 0
BBX 20 19 0 0
BITMAP
01C000
01C000
00E000
007000
000000
007000
00F000
01F800
01FC00
039C00
079E00
070E00
0F0700
0E0780
1FFF80
3FFFC0
3801C0
7000E0
F000F0
ENDCHAR
STARTCHAR 00C1
ENCODING 193
SWIDTH 1028 0
DWIDTH 20 0
BBX 20 19 0 0
BITMAP
003800
003800
007000
006000
000000
007000
00F000
01F800
01FC00
039C00
079E00
070E00
0F0700
0E0780
1FFF80
3FFFC0
3801C0
7000E0
F000F0
ENDCHAR
STARTCHAR 00C2
ENCODING 194
SWIDTH 1028 0
DWIDTH 20 0
BBX 20 20 0 0
BITMAP
006000
00F000
01F800
019800
039C00
070E00
007000
00F000
01F800
01FC00
039C00
079E00
070E00
0F0700
0E0780
1FFF80
3FFFC0
3801C0
7000E0
F000F0
ENDCHAR
STARTCHAR 00C3
ENCODING 195
SWIDTH 1028 0
DWIDTH 20 0
BBX 20 18 0 0
BITMAP
07FE00
07FE00
000000
000000
007000
00F000
01F800
01FC00
039C00
079E00
070E00
0F0700
0E0780
1FFF80
3FFFC0
3801C0
7000E0
F000F0
ENDCHAR
STARTCHAR 00C4
ENCODING 196
SWIDTH 1028 0
DWIDTH 20 0
BBX 20 17 0 0
BITMAP
039C00
039C00
039C00
007000
00F000
01F800
01FC00
039C00
079E00
070E00
0F0700
0E0780
1FFF80
3FFFC0
3801C0
7000E0
F000F0
ENDCHAR
STARTCHAR 00C5
ENCODING 197
SWIDTH 1028 0
DWIDTH 20 0
BBX 20 19 0 0
BITMAP
01F800
010800
010800
010800
01F800
007000
00F000
01F800
01FC00
039C00
079E00
070E00
0F0700
0E0780
1FFF80
3FFFC0
3801C0
7000E0
F000F0
ENDCHAR
STARTCHAR 00C6
ENCODING 198
SWIDTH 1337 0
DWIDTH 26 0
BBX 25 14 0 0
BITMAP
00FFF000
00FFF000
01FFF000
03DC0000
039C0000
079C0000
071FFF80
0F1FFF80
1E1C0000
1FFC0000
3FFC0000
380F0000
780FFF80
F007FF80
ENDCHAR
STARTCHAR 00C7
ENCODING 199
SWIDTH 822 0
DWIDTH 16 0
BBX 14 18 1 -4
BITMAP
3FFC
7FFC
FFFC
E000
E000
E000
E000
E000
E000
E000
E000
FFFC
7FFC
3FFC
0380
0380
0300
0300
ENDCHAR
STARTCHAR 00C8
ENCODING 200
SWIDTH 822 0
DWIDTH 16 0
BBX 14 20 1 0
BITMAP
0E00
0E00
0700
0700
0380
0000
3F00
7F00
FF00
E000
E000
E000
FFFC
FFFC
E000
E000
E000
FFFC
7FFC
3FFC
ENDCHAR
STARTCHAR 00C9
ENCODING 201
SWIDTH 822 0
DWIDTH 16 0
BBX 14 20 1 0
BITMAP
01C0
01C0
0380
0380
0300
0000
3F00
7F00
FF00
E000
E000
E000
FFFC
FFFC
E000
E000
E000
FFFC
7FFC
3FFC
ENDCHAR
STARTCHAR 00CA
ENCODING 202
SWIDTH 822 0
DWIDTH 16 0
BBX 14 20 1 0
BITMAP
0380
07C0
06E0
0E60
1C70
0000
3F00
7F00
FF00
E000
E000
E000
FFFC
FFFC
E000
E000
E000
FFFC
7FFC
3FFC
ENDCHAR
STARTCHAR 00CB
ENCODING 203
SWIDTH 822 0
DWIDTH 16 0
BBX 14 18 1 0
BITMAP
0C60
0E70
0E70
0000
3F00
7F00
FF00
E000
E000
E000
FFFC
FFFC
E000
E000
E000
FFFC
7FFC
3FFC
ENDCHAR
STARTCHAR 00CC
ENCODING 204
SWIDTH 257 0
DWIDTH 5 0
BBX 5 20 -1 0
BITMAP
E0
70
70
38
18
00
38
38
38
38
38
38
38
38
38
38
38
38
38
38
ENDCHAR
STARTCHAR 00CD
ENCODING 205
SWIDTH 257 0
DWIDTH 5 0
BBX 5 20 1 0
BITMAP
38
30
70
60
E0
00
E0
E0
E0
E0
E0
E0
E0
E0
E0
E0
E0
E0
E0
E0
ENDCHAR
STARTCHAR 00CE
ENCODING 206
SWIDTH 257 0
DWIDTH 5 0
BBX 9 20 -2 0
BITMAP
1C00
3E00
3700
7300
E380
0000
1C00
1C00
1C00
1C00
1C00
1C00
1C00
1C00
1C00
1C00
1C00
1C00
1C00
1C00
ENDCHAR
STARTCHAR 00CF
ENCODING 207
SWIDTH 257 0
DWIDTH 5 0
BBX 8 18 -1 0
BITMAP
E7
E7
E7
00
38
38
38
38
38
38
38
38
38
38
38
38
38
38
ENDCHAR
STARTCHAR 00D0
ENCODING 208
SWIDTH 925 0
DWIDTH 18 0
BBX 17 14 0 0
BITMAP
3FFE00
3FFF80
380F80
380380
380380
380380
FFC380
FFC380
380380
380380
380380
380780
3FFF80
3FFE00
ENDCHAR
STARTCHAR 00D1
ENCODING 209
SWIDTH 925 0
DWIDTH 18 0
BBX 16 18 1 0
BITMAP
1FF8
1FF8
0000
0000
E007
F007
F807
FC07
FE07
EF07
E787
E3C7
E1E7
E0F7
E07F
E03F
E01F
E00E
ENDCHAR
STARTCHAR 00D2
ENCODING 210
SWIDTH 874 0
DWIDTH 17 0
BBX 15 20 1 0
BITMAP
0E00
0700
0700
0380
0180
0000
3FF8
7FFE
FFFE
E00E
E00E
E00E
E00E
E00E
E00E
E00E
E00E
FFFE
7FFE
3FF8
ENDCHAR
STARTCHAR 00D3
ENCODING 211
SWIDTH 874 0
DWIDTH 17 0
BBX 15 20 1 0
BITMAP
00E0
00C0
01C0
0180
0380
0000
3FF8
7FFE
FFFE
E00E
E00E
E00E
E00E
E00E
E00E
E00E
E00E
FFFE
7FFE
3FF8
ENDCHAR
STARTCHAR 00D4
ENCODING 212
SWIDTH 874 0
DWIDTH 17 0
BBX 15 20 1 0
BITMAP
0380
07C0
06E0
0E60
1C70
0000
3FF8
7FFE
FFFE
E00E
E00E
E00E
E00E
E00E
E00E
E00E
E00E
FFFE
7FFE
3FF8
ENDCHAR
STARTCHAR 00D5
ENCODING 213
SWIDTH 874 0
DWIDTH 17 0
BBX 15 18 1 0
BITMAP
3FF8
3FF8
0000
0000
3FF8
7FFE
FFFE
E00E
E00E
E00E
E00E
E00E
E00E
E00E
E00E
FFFE
7FFE
3FF8
ENDCHAR
STARTCHAR 00D6
ENCODING 214
SWIDTH 874 0
DWIDTH 17 0
BBX 15 18 1 0
BITMAP
0C60
0E70
0E70
0000
3FF8
7FFE
FFFE
E00E
E00E
E00E
E00E
E00E
E00E
E00E
E00E
FFFE
7FFE
3FF8
ENDCHAR
STARTCHAR 00D7
ENCODING 215
SWIDTH 565 0
DWIDTH 11 0
BBX 8 8 2 3
BITMAP
42
E7
7E
3C
3C
7E
E7
42
ENDCHAR
STARTCHAR 00D8
ENCODING 216
SWIDTH 874 0
DWIDTH 17 0
BBX 15 18 1 -2
BITMAP
000E
001C
3FFC
7FFE
FFFE
E0EE
E0EE
E1CE
E38E
E38E
E70E
EE0E
EE0E
FFFE
7FFE
3FF8
7000
E000
ENDCHAR
STARTCHAR 00D9
ENCODING 217
SWIDTH 874 0
DWIDTH 17 0
BBX 15 20 1 0
BITMAP
0E00
0700
0700
0380
0180
0000
E00E
E00E
E00E
E00E
E00E
E00E
E00E
E00E
E00E
E00E
E00E
FFFE
7FFE
3FF8
ENDCHAR
STARTCHAR 00DA
ENCODING 218
SWIDTH 874 0
DWIDTH 17 0
BBX 15 20 1 0
BITMAP
00E0
00C0
01C0
0180
0380
0000
E00E
E00E
E00E
E00E
E00E
E00E
E00E
E00E
E00E
E00E
E00E
FFFE
7FFE
3FF8
ENDCHAR
STARTCHAR 00DB
ENCODING 219
SWIDTH 874 0
DWIDTH 17 0
BBX 15 20 1 0
BITMAP
0380
07C0
06E0
0E60
1C70
0000
E00E
E00E
E00E
E00E
E00E
E00E
E00E
E00E
E00E
E00E
E00E
FFFE
7FFE
3FF8
ENDCHAR
STARTCHAR 00DC
ENCODING 220
SWIDTH 874 0
DWIDTH 17 0
BBX 15 18 1 0
BITMAP
0C60
0E70
0E70
0000
E00E
E00E
E00E
E00E
E00E
E00E
E00E
E00E
E00E
E00E
E00E
FFFE
7FFE
3FF8
ENDCHAR
STARTCHAR 00DD
ENCODING 221
SWIDTH 977 0
DWIDTH 19 0
BBX 17 20 1 0
BITMAP
007000
00E000
00E000
01C000
018000
000000
F00780
780F00
3C1E00
1E3C00
0F7800
07F000
03E000
01C000
01C000
01C000
01C000
01C000
01C000
01C000
ENDCHAR
STARTCHAR 00DE
ENCODING 222
SWIDTH 874 0
DWIDTH 17 0
BBX 16 14 1 0
BITMAP
E000
E000
FFFC
FFFE
E00F
E007
E007
E007
E007
E00F
FFFE
FFFC
E000
E000
ENDCHAR
STARTCHAR 00DF
ENCODING 223
SWIDTH 925 0
DWIDTH 18 0
BBX 17 14 1 0
BITMAP
7F8000
FFC000
E1C000
E1C000
E1C000
E1FE00
E0FF00
E00780
E00380
E00380
E00380
E00F00
E3FF00
E3FE00
ENDCHAR
STARTCHAR 00E0
ENCODING 224
SWIDTH 822 0
DWIDTH 16 0
BBX 14 16 1 0
BITMAP
0E00
0700
0380
0180
0000
01F0
01FC
001C
001C
7FFC
FFFC
E01C
E01C
E01C
FFFC
7FF8
ENDCHAR
STARTCHAR 00E1
ENCODING 225
SWIDTH 822 0
DWIDTH 16 0
BBX 14 16 1 0
BITMAP
00E0
01C0
01C0
0380
0000
01F0
01FC
001C
001C
7FFC
FFFC
E01C
E01C
E01C
FFFC
7FF8
ENDCHAR
STARTCHAR 00E2
ENCODING 226
SWIDTH 822 0
DWIDTH 16 0
BBX 14 16 1 0
BITMAP
0380
07C0
06E0
0E70
1C70
01F0
01FC
001C
001C
7FFC
FFFC
E01C
E01C
E01C
FFFC
7FF8
ENDCHAR
STARTCHAR 00E3
ENCODING 227
SWIDTH 822 0
DWIDTH 16 0
BBX 14 15 1 0
BITMAP
1FF8
1FF8
0000
0000
01F0
01FC
001C
001C
7FFC
FFFC
E01C
E01C
E01C
FFFC
7FF8
ENDCHAR
STARTCHAR 00E4
ENCODING 228
SWIDTH 822 0
DWIDTH 16 0
BBX 14 14 1 0
BITMAP
0E70
0E70
0E70
01F0
01FC
001C
001C
7FFC
FFFC
E01C
E01C
E01C
FFFC
7FF8
ENDCHAR
STARTCHAR 00E5
ENCODING 229
SWIDTH 822 0
DWIDTH 16 0
BBX 14 16 1 0
BITMAP
07E0
0C20
0C20
0C60
07E0
01F0
01FC
001C
001C
7FFC
FFFC
E01C
E01C
E01C
FFFC
7FF8
ENDCHAR
STARTCHAR 00E6
ENCODING 230
SWIDTH 1388 0
DWIDTH 27 0
BBX 25 10 1 0
BITMAP
01FFFF00
01FFFF80
001C0380
7FFC0380
FFFFFF80
E01FFF80
E01C0000
E01C0000
FFFFE000
7FF7E000
ENDCHAR
STARTCHAR 00E7
ENCODING 231
SWIDTH 771 0
DWIDTH 15 0
BBX 13 14 1 -4
BITMAP
7FF8
FFF8
E000
E000
E000
E000
E000
F000
7FF8
3FF8
0700
0700
0600
0600
ENDCHAR
STARTCHAR 00E8
ENCODING 232
SWIDTH 822 0
DWIDTH 16 0
BBX 14 16 1 0
BITMAP
0C00
0E00
0700
0300
0000
0000
7FF8
FFFC
E01C
E01C
FFFC
FFFC
E000
E000
7F00
3F00
ENDCHAR
STARTCHAR 00E9
ENCODING 233
SWIDTH 822 0
DWIDTH 16 0
BBX 14 16 1 0
BITMAP
01C0
0180
0380
0700
0000
0000
7FF8
FFFC
E01C
E01C
FFFC
FFFC
E000
E000
7F00
3F00
ENDCHAR
STARTCHAR 00EA
ENCODING 234
SWIDTH 822 0
DWIDTH 16 0
BBX 14 16 1 0
BITMAP
0700
0780
0FC0
1CE0
3860
0000
7FF8
FFFC
E01C
E01C
FFFC
FFFC
E000
E000
7F00
3F00
ENDCHAR
STARTCHAR 00EB
ENCODING 235
SWIDTH 822 0
DWIDTH 16 0
BBX 14 14 1 0
BITMAP
1CE0
1CE0
1CE0
0000
7FF8
FFFC
E01C
E01C
FFFC
FFFC
E000
E000
7F00
3F00
ENDCHAR
STARTCHAR 00EC
ENCODING 236
SWIDTH 257 0
DWIDTH 5 0
BBX 5 16 -1 0
BITMAP
E0
70
30
18
00
00
38
38
38
38
38
38
38
38
38
38
ENDCHAR
STARTCHAR 00ED
ENCODING 237
SWIDTH 257 0
DWIDTH 5 0
BBX 5 16 1 0
BITMAP
38
70
60
E0
00
00
E0
E0
E0
E0
E0
E0
E0
E0
E0
E0
ENDCHAR
STARTCHAR 00EE
ENCODING 238
SWIDTH 411 0
DWIDTH 8 0
BBX 10 16 -1 0
BITMAP
0C00
1E00
3F00
7380
E1C0
0000
0C00
0C00
0C00
0C00
0C00
0C00
0C00
0C00
0C00
0C00
ENDCHAR
STARTCHAR 00EF
ENCODING 239
SWIDTH 308 0
DWIDTH 6 0
BBX 8 14 -1 0
BITMAP
E7
E7
E7
00
1C
1C
1C
1C
1C
1C
1C
1C
1C
1C
ENDCHAR
STARTCHAR 00F0
ENCODING 240
SWIDTH 822 0
DWIDTH 16 0
BBX 16 15 1 0
BITMAP
000F
0FFC
0FFC
001C
001C
001C
7FFC
7FFC
E01C
E01C
E01C
E01C
F03C
7FF8
3FF0
ENDCHAR
STARTCHAR 00F1
ENCODING 241
SWIDTH 822 0
DWIDTH 16 0
BBX 14 15 1 0
BITMAP
3FF0
3FF0
0000
0000
0000
7FF8
FFF8
E03C
E01C
E01C
E01C
E01C
E01C
E01C
E01C
ENDCHAR
STARTCHAR 00F2
ENCODING 242
SWIDTH 822 0
DWIDTH 16 0
BBX 14 16 1 0
BITMAP
0C00
0E00
0700
0300
0000
0000
7FF8
FFF8
E03C
E01C
E01C
E01C
E01C
F078
7FF8
3FF0
ENDCHAR
STARTCHAR 00F3
ENCODING 243
SWIDTH 822 0
DWIDTH 16 0
BBX 14 16 1 0
BITMAP
01C0
0180
0380
0700
0000
0000
7FF8
FFF8
E03C
E01C
E01C
E01C
E01C
F078
7FF8
3FF0
ENDCHAR
STARTCHAR 00F4
ENCODING 244
SWIDTH 822 0
DWIDTH 16 0
BBX 14 16 1 0
BITMAP
0700
0780
0FC0
1CE0
3860
0000
7FF8
FFF8
E03C
E01C
E01C
E01C
E01C
F078
7FF8
3FF0
ENDCHAR
STARTCHAR 00F5
ENCODING 245
SWIDTH 822 0
DWIDTH 16 0
BBX 14 15 1 0
BITMAP
3FF0
3FF0
0000
0000
0000
7FF8
FFF8
E03C
E01C
E01C
E01C
E01C
F078
7FF8
3FF0
ENDCHAR
STARTCHAR 00F6
ENCODING 246
SWIDTH 822 0
DWIDTH 16 0
BBX 14 14 1 0
BITMAP
1CE0
1CE0
1CE0
0000
7FF8
FFF8
E03C
E01C
E01C
E01C
E01C
F078
7FF8
3FF0
ENDCHAR
STARTCHAR 00F7
ENCODING 247
SWIDTH 565 0
DWIDTH 11 0
BBX 9 10 1 2
BITMAP
1C00
1C00
1C00
0000
FF80
FF80
0000
1C00
1C00
1C00
ENDCHAR
STARTCHAR 00F8
ENCODING 248
SWIDTH 822 0
DWIDTH 16 0
BBX 14 14 1 -2
BITMAP
0038
0070
7FF8
FFF8
E1FC
E39C
E39C
E71C
EE1C
FC78
7FF8
3FF0
7000
E000
ENDCHAR
STARTCHAR 00F9
ENCODING 249
SWIDTH 822 0
DWIDTH 16 0
BBX 14 16 1 0
BITMAP
0C00
0E00
0700
0300
0000
E01C
E01C
E01C
E01C
E01C
E01C
E01C
E01C
F878
7FF8
3FF0
ENDCHAR
STARTCHAR 00FA
ENCODING 250
SWIDTH 822 0
DWIDTH 16 0
BBX 14 16 1 0
BITMAP
01C0
0180
0380
0700
0000
E01C
E01C
E01C
E01C
E01C
E01C
E01C
E01C
F878
7FF8
3FF0
ENDCHAR
STARTCHAR 00FB
ENCODING 251
SWIDTH 822 0
DWIDTH 16 0
BBX 14 16 1 0
BITMAP
0700
0780
0FC0
1CE0
3860
E01C
E01C
E01C
E01C
E01C
E01C
E01C
E01C
F878
7FF8
3FF0
ENDCHAR
STARTCHAR 00FC
ENCODING 252
SWIDTH 822 0
DWIDTH 16 0
BBX 14 14 1 0
BITMAP
1CE0
1CE0
1CE0
E01C
E01C
E01C
E01C
E01C
E01C
E01C
E01C
F878
7FF8
3FF0
ENDCHAR
STARTCHAR 00FD
ENCODING 253
SWIDTH 822 0
DWIDTH 16 0
BBX 14 19 1 -3
BITMAP
01C0
01C0
0380
0300
0000
E01C
E01C
E01C
E01C
E01C
E01C
E01C
F01C
7FFC
3FFC
001C
001C
03FC
03F8
ENDCHAR
STARTCHAR 00FE
ENCODING 254
SWIDTH 822 0
DWIDTH 16 0
BBX 14 17 1 -3
BITMAP
E000
E000
E000
E000
FFF8
FFFC
E01C
E01C
E01C
E01C
E01C
E03C
FFF8
FFF0
E000
E000
E000
ENDCHAR
STARTCHAR 00FF
ENCODING 255
SWIDTH 822 0
DWIDTH 16 0
BBX 14 17 1 -3
BITMAP
1CE0
1CE0
1CE0
E01C
E01C
E01C
E01C
E01C
E01C
E01C
F01C
7FFC
3FFC
001C
001C
03FC
03F8
ENDCHAR
STARTCHAR 0100
ENCODING 256
SWIDTH 1028 0
DWIDTH 20 0
BBX 20 18 0 0
BITMAP
07FE00
07FE00
000000
000000
007000
00F000
01F800
01FC00
039C00
079E00
070E00
0F0700
0E0780
1FFF80
3FFFC0
3801C0
7000E0
F000F0
ENDCHAR
STARTCHAR 0101
ENCODING 257
SWIDTH 822 0
DWIDTH 16 0
BBX 14 15 1 0
BITMAP
1FF8
1FF8
0000
0000
01F0
01FC
001C
001C
7FFC
FFFC
E01C
E01C
E01C
FFFC
7FF8
ENDCHAR
STARTCHAR 0102
ENCODING 258
SWIDTH 1028 0
DWIDTH 20 0
BBX 20 19 0 0
BITMAP
030C00
030C00
03FC00
01F800
000000
007000
00F000
01F800
01FC00
039C00
079E00
070E00
0F0700
0E0780
1FFF80
3FFFC0
3801C0
7000E0
F000F0
ENDCHAR
STARTCHAR 0103
ENCODING 259
SWIDTH 822 0
DWIDTH 16 0
BBX 14 16 1 0
BITMAP
0C30
0C30
0FF0
0FE0
0000
01F0
01FC
001C
001C
7FFC
FFFC
E01C
E01C
E01C
FFFC
7FF8
ENDCHAR
STARTCHAR 0104
ENCODING 260
SWIDTH 1028 0
DWIDTH 20 0
BBX 21 18 0 -4
BITMAP
007000
00F000
01F800
01FC00
039C00
079E00
070E00
0F0700
0E0780
1FFF80
3FFFC0
3801C0
7000E0
F000F0
0000C0
0001C0
0001F8
0001F8
ENDCHAR
STARTCHAR 0105
ENCODING 261
SWIDTH 822 0
DWIDTH 16 0
BBX 14 15 1 -4
BITMAP
01F0
01FC
001C
001C
7FFC
FFFC
E01C
E01C
E01C
FFFC
7FF0
0300
0600
07E0
07E0
ENDCHAR
STARTCHAR 0106
ENCODING 262
SWIDTH 822 0
DWIDTH 16 0
BBX 14 20 1 0
BITMAP
01C0
01C0
0380
0380
0700
0000
3FFC
7FFC
FFFC
E000
E000
E000
E000
E000
E000
E000
E000
FFFC
7FFC
3FFC
ENDCHAR
STARTCHAR 0107
ENCODING 263
SWIDTH 771 0
DWIDTH 15 0
BBX 13 16 1 0
BITMAP
01C0
0380
0700
0600
0000
0000
7FF8
FFF8
E000
E000
E000
E000
E000
F000
7FF8
3FF8
ENDCHAR
STARTCHAR 010A
ENCODING 266
SWIDTH 822 0
DWIDTH 16 0
BBX 14 18 1 0
BITMAP
0380
0380
0380
0000
3FFC
7FFC
FFFC
E000
E000
E000
E000
E000
E000
E000
E000
FFFC
7FFC
3FFC
ENDCHAR
STARTCHAR 010B
ENCODING 267
SWIDTH 771 0
DWIDTH 15 0
BBX 13 14 1 0
BITMAP
0300
0700
0300
0000
7FF8
FFF8
E000
E000
E000
E000
E000
F000
7FF8
3FF8
ENDCHAR
STARTCHAR 010C
ENCODING 268
SWIDTH 822 0
DWIDTH 16 0
BBX 14 20 1 0
BITMAP
1C70
0E60
06E0
07C0
0380
0000
3FFC
7FFC
FFFC
E000
E000
E000
E000
E000
E000
E000
E000
FFFC
7FFC
3FFC
ENDCHAR
STARTCHAR 010D
ENCODING 269
SWIDTH 771 0
DWIDTH 15 0
BBX 13 16 1 0
BITMAP
3870
1CE0
0FC0
0780
0700
0000
7FF8
FFF8
E000
E000
E000
E000
E000
F000
7FF8
3FF8
ENDCHAR
STARTCHAR 010E
ENCODING 270
SWIDTH 925 0
DWIDTH 18 0
BBX 16 20 1 0
BITMAP
1C70
0C60
0EE0
07C0
0380
0000
FFFC
FFFE
FFFE
E007
E007
E007
E007
E007
E007
E007
E007
FFFE
FFFE
FFFC
ENDCHAR
STARTCHAR 010F
ENCODING 271
SWIDTH 977 0
DWIDTH 19 0
BBX 18 14 1 0
BITMAP
001DC0
001DC0
001D80
001D80
7FFD80
FFFC00
E01C00
E01C00
E01C00
E01C00
E01C00
F03C00
7FF800
3FF000
ENDCHAR
STARTCHAR 0110
ENCODING 272
SWIDTH 925 0
DWIDTH 18 0
BBX 17 14 0 0
BITMAP
3FFE00
3FFF80
380F80
380380
380380
380380
FFC380
FFC380
380380
380380
380380
380780
3FFF80
3FFE00
ENDCHAR
STARTCHAR 0111
ENCODING 273
SWIDTH 822 0
DWIDTH 16 0
BBX 15 15 1 0
BITMAP
001C
07FE
07FE
001C
3FFC
7FFC
FFFC
E01C
E01C
E01C
E01C
E01C
F03C
7FF8
3FF0
ENDCHAR
STARTCHAR 0112
ENCODING 274
SWIDTH 822 0
DWIDTH 16 0
BBX 14 18 1 0
BITMAP
3FF8
3FF8
0000
0000
3F00
7F00
FF00
E000
E000
E000
FFFC
FFFC
E000
E000
E000
FFFC
7FFC
3FFC
ENDCHAR
STARTCHAR 0113
ENCODING 275
SWIDTH 822 0
DWIDTH 16 0
BBX 14 15 1 0
BITMAP
3FF0
3FF0
0000
0000
0000
7FF8
FFFC
E01C
E01C
FFFC
FFFC
E000
E000
7F00
3F00
ENDCHAR
STARTCHAR 0114
ENCODING 276
SWIDTH 822 0
DWIDTH 16 0
BBX 14 20 1 0
BITMAP
1C30
1C30
0FF0
0FE0
0000
0000
3F00
7F00
FF00
E000
E000
E000
FFFC
FFFC
E000
E000
E000
FFFC
7FFC
3FFC
ENDCHAR
STARTCHAR 0115
ENCODING 277
SWIDTH 822 0
DWIDTH 16 0
BBX 14 16 1 0
BITMAP
1860
1860
1FE0
0FC0
0000
0000
7FF8
FFFC
E01C
E01C
FFFC
FFFC
E000
E000
7F00
3F00
ENDCHAR
STARTCHAR 0116
ENCODING 278
SWIDTH 822 0
DWIDTH 16 0
BBX 14 18 1 0
BITMAP
0380
0380
0380
0000
3F00
7F00
FF00
E000
E000
E000
FFFC
FFFC
E000
E000
E000
FFFC
7FFC
3FFC
ENDCHAR
STARTCHAR 0117
ENCODING 279
SWIDTH 822 0
DWIDTH 16 0
BBX 14 14 1 0
BITMAP
0700
0700
0300
0000
7FF8
FFFC
E01C
E01C
FFFC
FFFC
E000
E000
7F00
3F00
ENDCHAR
STARTCHAR 0118
ENCODING 280
SWIDTH 822 0
DWIDTH 16 0
BBX 15 18 1 -4
BITMAP
3F00
7F00
FF00
E000
E000
E000
FFFC
FFFC
E000
E000
E000
FFFC
7FFC
3FFC
0038
0030
003E
003E
ENDCHAR
STARTCHAR 0119
ENCODING 281
SWIDTH 822 0
DWIDTH 16 0
BBX 14 14 1 -4
BITMAP
7FF8
FFFC
E01C
E01C
FFFC
FFFC
E000
E000
7F00
3F00
0C00
1C00
1F80
0F80
ENDCHAR
STARTCHAR 011A
ENCODING 282
SWIDTH 822 0
DWIDTH 16 0
BBX 14 20 1 0
BITMAP
1C70
0E60
06E0
07C0
0380
0000
3F00
7F00
FF00
E000
E000
E000
FFFC
FFFC
E000
E000
E000
FFFC
7FFC
3FFC
ENDCHAR
STARTCHAR 011B
ENCODING 283
SWIDTH 822 0
DWIDTH 16 0
BBX 14 16 1 0
BITMAP
3860
1CE0
0FC0
0780
0700
0000
7FF8
FFFC
E01C
E01C
FFFC
FFFC
E000
E000
7F00
3F00
ENDCHAR
STARTCHAR 011E
ENCODING 286
SWIDTH 874 0
DWIDTH 17 0
BBX 15 20 1 0
BITMAP
1C30
1C30
0FF0
0FE0
0000
0000
3F80
7F80
FF80
E000
E000
E000
E00E
E00E
E00E
E00E
E00E
FFFE
7FFE
3FFC
ENDCHAR
STARTCHAR 011F
ENCODING 287
SWIDTH 822 0
DWIDTH 16 0
BBX 14 19 1 -3
BITMAP
1860
1860
1FE0
0FC0
0000
0000
7FF8
FFF8
E01C
E01C
E01C
E01C
E01C
FFFC
7FFC
001C
001C
03FC
03F8
ENDCHAR
STARTCHAR 0120
ENCODING 288
SWIDTH 874 0
DWIDTH 17 0
BBX 15 18 1 0
BITMAP
0380
0380
0380
0000
3F80
7F80
FF80
E000
E000
E000
E00E
E00E
E00E
E00E
E00E
FFFE
7FFE
3FFC
ENDCHAR
STARTCHAR 0121
ENCODING 289
SWIDTH 822 0
DWIDTH 16 0
BBX 14 17 1 -3
BITMAP
0300
0700
0300
0000
7FF8
FFF8
E01C
E01C
E01C
E01C
E01C
FFFC
7FFC
001C
001C
03FC
03F8
ENDCHAR
STARTCHAR 0122
ENCODING 290
SWIDTH 874 0
DWIDTH 17 0
BBX 15 18 1 -4
BITMAP
3F80
7F80
FF80
E000
E000
E000
E00E
E00E
E00E
E00E
E00E
FFFE
7FFE
3FFC
0180
0380
0380
0300
ENDCHAR
STARTCHAR 0123
ENCODING 291
SWIDTH 822 0
DWIDTH 16 0
BBX 14 19 1 -3
BITMAP
0180
0300
0300
0300
0000
0000
7FF8
FFF8
E01C
E01C
E01C
E01C
E01C
FFFC
7FFC
001C
001C
03FC
03F8
ENDCHAR
STARTCHAR 0126
ENCODING 294
SWIDTH 925 0
DWIDTH 18 0
BBX 16 14 1 0
BITMAP
E007
E007
FFFF
FFFF
E007
E007
FFFF
FFFF
FFFF
E007
E007
E007
E007
E007
ENDCHAR
STARTCHAR 0127
ENCODING 295
SWIDTH 822 0
DWIDTH 16 0
BBX 15 15 0 0
BITMAP
7000
FFE0
FFE0
7000
7FF8
7FFC
7FFE
700E
700E
700E
700E
700E
700E
700E
700E
ENDCHAR
STARTCHAR 012A
ENCODING 298
SWIDTH 257 0
DWIDTH 5 0
BBX 10 18 -2 0
BITMAP
FFC0
FFC0
0000
0000
1C00
1C00
1C00
1C00
1C00
1C00
1C00
1C00
1C00
1C00
1C00
1C00
1C00
1C00
ENDCHAR
STARTCHAR 012B
ENCODING 299
SWIDTH 411 0
DWIDTH 8 0
BBX 10 15 -1 0
BITMAP
FFC0
FFC0
0000
0000
0000
0E00
0E00
0E00
0E00
0E00
0E00
0E00
0E00
0E00
0E00
ENDCHAR
STARTCHAR 012C
ENCODING 300
SWIDTH 257 0
DWIDTH 5 0
BBX 9 20 -2 0
BITMAP
E180
E180
7F80
7F00
0000
0000
1C00
1C00
1C00
1C00
1C00
1C00
1C00
1C00
1C00
1C00
1C00
1C00
1C00
1C00
ENDCHAR
STARTCHAR 012D
ENCODING 301
SWIDTH 308 0
DWIDTH 6 0
BBX 8 16 -1 0
BITMAP
C3
C3
FF
7E
00
00
38
38
38
38
38
38
38
38
38
38
ENDCHAR
STARTCHAR 012E
ENCODING 302
SWIDTH 257 0
DWIDTH 5 0
BBX 6 18 -1 -4
BITMAP
38
38
38
38
38
38
38
38
38
38
38
38
38
38
60
E0
FC
7C
ENDCHAR
STARTCHAR 012F
ENCODING 303
SWIDTH 257 0
DWIDTH 5 0
BBX 6 18 -1 -4
BITMAP
38
38
38
00
38
38
38
38
38
38
38
38
38
38
60
E0
FC
7C
ENDCHAR
STARTCHAR 0130
ENCODING 304
SWIDTH 257 0
DWIDTH 5 0
BBX 3 18 1 0
BITMAP
E0
E0
E0
00
E0
E0
E0
E0
E0
E0
E0
E0
E0
E0
E0
E0
E0
E0
ENDCHAR
STARTCHAR 0131
ENCODING 305
SWIDTH 257 0
DWIDTH 5 0
BBX 3 10 1 0
BITMAP
E0
E0
E0
E0
E0
E0
E0
E0
E0
E0
ENDCHAR
STARTCHAR 0132
ENCODING 306
SWIDTH 771 0
DWIDTH 15 0
BBX 13 14 1 0
BITMAP
E038
E038
E038
E038
E038
E038
E038
E038
E038
E038
E038
E7F8
E7F0
E7E0
ENDCHAR
STARTCHAR 0133
ENCODING 307
SWIDTH 565 0
DWIDTH 11 0
BBX 9 17 1 -3
BITMAP
E380
E380
E380
0000
E380
E380
E380
E380
E380
E380
E380
E380
E380
E380
0F00
1F00
1E00
ENDCHAR
STARTCHAR 0136
ENCODING 310
SWIDTH 822 0
DWIDTH 16 0
BBX 14 18 1 -4
BITMAP
E03C
E078
E0F0
E1C0
E780
EF00
FE00
FE00
E780
E3C0
E1E0
E0F0
E078
E03C
0300
0300
0700
0600
ENDCHAR
STARTCHAR 0137
ENCODING 311
SWIDTH 720 0
DWIDTH 14 0
BBX 13 18 1 -4
BITMAP
E000
E000
E000
E078
E0F0
E1C0
E780
EF00
FC00
EF00
E780
E3C0
E1E0
E070
0700
0600
0600
0600
ENDCHAR
STARTCHAR 0139
ENCODING 313
SWIDTH 771 0
DWIDTH 15 0
BBX 13 20 1 0
BITMAP
3800
3000
7000
6000
E000
0000
E000
E000
E000
E000
E000
E000
E000
E000
E000
E000
E000
FFF8
7FF8
3FF8
ENDCHAR
STARTCHAR 013A
ENCODING 314
SWIDTH 257 0
DWIDTH 5 0
BBX 5 19 1 0
BITMAP
38
70
60
E0
00
E0
E0
E0
E0
E0
E0
E0
E0
E0
E0
E0
E0
E0
E0
ENDCHAR
STARTCHAR 013B
ENCODING 315
SWIDTH 771 0
DWIDTH 15 0
BBX 13 18 1 -4
BITMAP
E000
E000
E000
E000
E000
E000
E000
E000
E000
E000
E000
FFF8
7FF8
3FF8
0300
0300
0300
0700
ENDCHAR
STARTCHAR 013C
ENCODING 316
SWIDTH 257 0
DWIDTH 5 0
BBX 3 18 1 -4
BITMAP
E0
E0
E0
E0
E0
E0
E0
E0
E0
E0
E0
E0
E0
E0
E0
E0
C0
C0
ENDCHAR
STARTCHAR 013D
ENCODING 317
SWIDTH 771 0
DWIDTH 15 0
BBX 13 15 1 0
BITMAP
01C0
E180
E180
E180
E180
E000
E000
E000
E000
E000
E000
E000
FFF8
7FF8
3FF8
ENDCHAR
STARTCHAR 013E
ENCODING 318
SWIDTH 411 0
DWIDTH 8 0
BBX 7 14 1 0
BITMAP
E6
EE
EE
EC
EC
E0
E0
E0
E0
E0
E0
E0
E0
E0
ENDCHAR
STARTCHAR 013F
ENCODING 319
SWIDTH 771 0
DWIDTH 15 0
BBX 13 14 1 0
BITMAP
E000
E000
E000
E000
E000
E180
E180
E180
E000
E000
E000
FFF8
7FF8
3FF8
ENDCHAR
STARTCHAR 0140
ENCODING 320
SWIDTH 411 0
DWIDTH 8 0
BBX 7 14 1 0
BITMAP
E0
E0
E0
E0
E0
EE
EE
EE
E0
E0
E0
E0
E0
E0
ENDCHAR
STARTCHAR 0141
ENCODING 321
SWIDTH 771 0
DWIDTH 15 0
BBX 15 14 0 0
BITMAP
3800
3800
3BE0
FFE0
FF80
F800
3800
3800
3800
3800
3800
3FFE
3FFE
0FFE
ENDCHAR
STARTCHAR 0142
ENCODING 322
SWIDTH 308 0
DWIDTH 6 0
BBX 6 14 0 0
BITMAP
38
38
38
3C
FC
FC
38
38
38
38
38
38
38
38
ENDCHAR
STARTCHAR 0143
ENCODING 323
SWIDTH 925 0
DWIDTH 18 0
BBX 16 19 1 0
BITMAP
00E0
00C0
01C0
0380
0000
E007
F007
F807
FC07
FE07
EF07
E787
E3C7
E1E7
E0F7
E07F
E03F
E01F
E00E
ENDCHAR
STARTCHAR 0144
ENCODING 324
SWIDTH 822 0
DWIDTH 16 0
BBX 14 16 1 0
BITMAP
01C0
0180
0380
0700
0000
0000
7FF8
FFF8
E03C
E01C
E01C
E01C
E01C
E01C
E01C
E01C
ENDCHAR
STARTCHAR 0145
ENCODING 325
SWIDTH 925 0
DWIDTH 18 0
BBX 16 18 1 -4
BITMAP
E007
F007
F807
FC07
FE07
EF07
E787
E3C7
E1E7
E0F7
E07F
E03F
E01F
E00E
0180
0180
0380
0300
ENDCHAR
STARTCHAR 0146
ENCODING 326
SWIDTH 822 0
DWIDTH 16 0
BBX 14 14 1 -4
BITMAP
7FF8
FFF8
E03C
E01C
E01C
E01C
E01C
E01C
E01C
E01C
0300
0300
0300
0700
ENDCHAR
STARTCHAR 0147
ENCODING 327
SWIDTH 925 0
DWIDTH 18 0
BBX 16 20 1 0
BITMAP
1C38
0E70
0EE0
07E0
03C0
0380
E007
F007
F807
FC07
FE07
EF07
E787
E3C7
E1E7
E0F7
E07F
E03F
E01F
E00E
ENDCHAR
STARTCHAR 0148
ENCODING 328
SWIDTH 822 0
DWIDTH 16 0
BBX 14 16 1 0
BITMAP
3870
1CE0
0FC0
0780
0700
0000
7FF8
FFF8
E03C
E01C
E01C
E01C
E01C
E01C
E01C
E01C
ENDCHAR
STARTCHAR 014A
ENCODING 330
SWIDTH 925 0
DWIDTH 18 0
BBX 16 18 1 -4
BITMAP
E007
F007
F807
FC07
FE07
EF07
E787
E3C7
E1E7
E0F7
E07F
E03F
E01F
E00F
0007
000F
003E
003E
ENDCHAR
STARTCHAR 014B
ENCODING 331
SWIDTH 822 0
DWIDTH 16 0
BBX 14 14 1 -4
BITMAP
7FF8
FFF8
E03C
E01C
E01C
E01C
E01C
E01C
E01C
E01C
001C
001C
00F8
00F8
ENDCHAR
STARTCHAR 014C
ENCODING 332
SWIDTH 874 0
DWIDTH 17 0
BBX 15 18 1 0
BITMAP
3FF8
3FF8
0000
0000
3FF8
7FFE
FFFE
E00E
E00E
E00E
E00E
E00E
E00E
E00E
E00E
FFFE
7FFE
3FF8
ENDCHAR
STARTCHAR 014D
ENCODING 333
SWIDTH 822 0
DWIDTH 16 0
BBX 14 15 1 0
BITMAP
3FF0
3FF0
0000
0000
0000
7FF8
FFF8
E03C
E01C
E01C
E01C
E01C
F078
7FF8
3FF0
ENDCHAR
STARTCHAR 014E
ENCODING 334
SWIDTH 874 0
DWIDTH 17 0
BBX 15 20 1 0
BITMAP
1C30
1C30
0FF0
0FE0
0000
0000
3FF8
7FFE
FFFE
E00E
E00E
E00E
E00E
E00E
E00E
E00E
E00E
FFFE
7FFE
3FF8
ENDCHAR
STARTCHAR 014F
ENCODING 335
SWIDTH 822 0
DWIDTH 16 0
BBX 14 16 1 0
BITMAP
1860
1860
1FE0
0FC0
0000
0000
7FF8
FFF8
E03C
E01C
E01C
E01C
E01C
F078
7FF8
3FF0
ENDCHAR
STARTCHAR 0150
ENCODING 336
SWIDTH 874 0
DWIDTH 17 0
BBX 15 19 1 0
BITMAP
071C
0638
0E70
1C60
0000
3FF8
7FFE
FFFE
E00E
E00E
E00E
E00E
E00E
E00E
E00E
E00E
FFFE
7FFE
3FF8
ENDCHAR
STARTCHAR 0151
ENCODING 337
SWIDTH 822 0
DWIDTH 16 0
BBX 14 16 1 0
BITMAP
0E38
0E70
1C60
18E0
0000
0000
7FF8
FFF8
E03C
E01C
E01C
E01C
E01C
F078
7FF8
3FF0
ENDCHAR
STARTCHAR 0152
ENCODING 338
SWIDTH 1440 0
DWIDTH 28 0
BBX 26 14 1 0
BITMAP
3FFBF000
7FFFF000
FFFFF000
E00E0000
E00E0000
E00E0000
E00FFFC0
E00FFFC0
E00E0000
E00E0000
E00E0000
FFFFFFC0
7FFFFFC0
3FFBFFC0
ENDCHAR
STARTCHAR 0153
ENCODING 339
SWIDTH 1337 0
DWIDTH 26 0
BBX 24 10 1 0
BITMAP
7FFFFF
FFFFFF
E03C07
E01C07
E01FFF
E01FFF
E03C00
F07C00
7FFFE0
3FFFE0
ENDCHAR
STARTCHAR 0154
ENCODING 340
SWIDTH 925 0
DWIDTH 18 0
BBX 16 20 1 0
BITMAP
00E0
00E0
01C0
0180
0380
0000
FFFC
FFFE
FFFF
E007
E007
E007
E00F
FFFE
FFFC
EF80
E7C0
E1F0
E078
E03E
ENDCHAR
STARTCHAR 0155
ENCODING 341
SWIDTH 462 0
DWIDTH 9 0
BBX 7 16 1 0
BITMAP
0E
0E
1C
18
00
00
3E
7E
E0
E0
E0
E0
E0
E0
E0
E0
ENDCHAR
STARTCHAR 0156
ENCODING 342
SWIDTH 925 0
DWIDTH 18 0
BBX 16 18 1 -4
BITMAP
FFFC
FFFE
FFFF
E007
E007
E007
E00F
FFFE
FFFC
EF80
E7C0
E1F0
E078
E03E
0180
0180
0380
0300
ENDCHAR
STARTCHAR 0157
ENCODING 343
SWIDTH 462 0
DWIDTH 9 0
BBX 7 14 1 -4
BITMAP
3E
7E
E0
E0
E0
E0
E0
E0
E0
E0
E0
C0
C0
C0
ENDCHAR
STARTCHAR 0158
ENCODING 344
SWIDTH 925 0
DWIDTH 18 0
BBX 16 20 1 0
BITMAP
1C70
0C60
0EC0
07C0
0380
0000
FFFC
FFFE
FFFF
E007
E007
E007
E00F
FFFE
FFFC
EF80
E7C0
E1F0
E078
E03E
ENDCHAR
STARTCHAR 0159
ENCODING 345
SWIDTH 462 0
DWIDTH 9 0
BBX 10 16 0 0
BITMAP
E1C0
7380
3F00
1E00
0E00
0000
1F00
3F00
7000
7000
7000
7000
7000
7000
7000
7000
ENDCHAR
STARTCHAR 015A
ENCODING 346
SWIDTH 822 0
DWIDTH 16 0
BBX 14 20 1 0
BITMAP
01C0
01C0
0380
0300
0700
0000
7F00
FF00
FF00
C000
C000
E000
FFF8
7FFC
001C
001C
001C
FFFC
FFFC
FFF8
ENDCHAR
STARTCHAR 015B
ENCODING 347
SWIDTH 720 0
DWIDTH 14 0
BBX 13 16 1 0
BITMAP
0180
0380
0700
0600
0000
0000
FE00
FE00
E000
E000
FFF0
7FF0
0038
0078
FFF0
FFF0
ENDCHAR
STARTCHAR 015E
ENCODING 350
SWIDTH 822 0
DWIDTH 16 0
BBX 14 18 1 -4
BITMAP
7F00
FF00
FF00
C000
C000
E000
FFF8
7FFC
001C
001C
001C
FFFC
FFFC
FFF8
0300
0300
0700
0600
ENDCHAR
STARTCHAR 015F
ENCODING 351
SWIDTH 720 0
DWIDTH 14 0
BBX 13 14 1 -4
BITMAP
FE00
FE00
E000
E000
FFF0
7FF0
0038
0078
FFF0
FFF0
0700
0600
0600
0600
ENDCHAR
STARTCHAR 0160
ENCODING 352
SWIDTH 822 0
DWIDTH 16 0
BBX 14 20 1 0
BITMAP
3860
1CE0
0FC0
0780
0700
0000
7F00
FF00
FF00
C000
C000
E000
FFF8
7FFC
001C
001C
001C
FFFC
FFFC
FFF8
ENDCHAR
STARTCHAR 0161
ENCODING 353
SWIDTH 720 0
DWIDTH 14 0
BBX 13 16 1 0
BITMAP
30E0
39C0
1F80
0F00
0700
0000
FE00
FE00
E000
E000
FFF0
7FF0
0038
0078
FFF0
FFF0
ENDCHAR
STARTCHAR 0162
ENCODING 354
SWIDTH 771 0
DWIDTH 15 0
BBX 14 18 0 -4
BITMAP
FFFC
FFFC
FFFC
0380
0380
0380
0380
0380
0380
0380
0380
0380
0380
0380
0380
0300
0300
0300
ENDCHAR
STARTCHAR 0163
ENCODING 355
SWIDTH 411 0
DWIDTH 8 0
BBX 8 18 0 -4
BITMAP
38
38
38
FF
FF
38
38
38
38
38
38
38
38
38
30
30
30
70
ENDCHAR
STARTCHAR 0164
ENCODING 356
SWIDTH 771 0
DWIDTH 15 0
BBX 14 20 0 0
BITMAP
1C70
0CE0
0EC0
07C0
0380
0000
FFFC
FFFC
FFFC
0380
0380
0380
0380
0380
0380
0380
0380
0380
0380
0380
ENDCHAR
STARTCHAR 0165
ENCODING 357
SWIDTH 617 0
DWIDTH 12 0
BBX 11 15 0 0
BITMAP
0060
3860
3860
38E0
FFE0
FF00
3800
3800
3800
3800
3800
3800
3800
3800
3800
ENDCHAR
STARTCHAR 0166
ENCODING 358
SWIDTH 771 0
DWIDTH 15 0
BBX 14 14 0 0
BITMAP
FFFC
FFFC
FFFC
0380
0380
0380
0380
1FE0
1FE0
0380
0380
0380
0380
0380
ENDCHAR
STARTCHAR 0167
ENCODING 359
SWIDTH 411 0
DWIDTH 8 0
BBX 8 14 0 0
BITMAP
38
38
38
FF
FF
38
38
38
7F
7F
38
38
38
38
ENDCHAR
STARTCHAR 0168
ENCODING 360
SWIDTH 874 0
DWIDTH 17 0
BBX 15 18 1 0
BITMAP
3FF8
3FF8
0000
0000
E00E
E00E
E00E
E00E
E00E
E00E
E00E
E00E
E00E
E00E
E00E
FFFE
7FFE
3FF8
ENDCHAR
STARTCHAR 0169
ENCODING 361
SWIDTH 822 0
DWIDTH 16 0
BBX 14 15 1 0
BITMAP
3FF0
3FF0
0000
0000
E01C
E01C
E01C
E01C
E01C
E01C
E01C
E01C
F878
7FF8
3FF0
ENDCHAR
STARTCHAR 016A
ENCODING 362
SWIDTH 874 0
DWIDTH 17 0
BBX 15 18 1 0
BITMAP
3FF8
3FF8
0000
0000
E00E
E00E
E00E
E00E
E00E
E00E
E00E
E00E
E00E
E00E
E00E
FFFE
7FFE
3FF8
ENDCHAR
STARTCHAR 016B
ENCODING 363
SWIDTH 822 0
DWIDTH 16 0
BBX 14 15 1 0
BITMAP
3FF0
3FF0
0000
0000
E01C
E01C
E01C
E01C
E01C
E01C
E01C
E01C
F878
7FF8
3FF0
ENDCHAR
STARTCHAR 016C
ENCODING 364
SWIDTH 874 0
DWIDTH 17 0
BBX 15 20 1 0
BITMAP
1C30
1C30
0FF0
0FE0
0000
0000
E00E
E00E
E00E
E00E
E00E
E00E
E00E
E00E
E00E
E00E
E00E
FFFE
7FFE
3FF8
ENDCHAR
STARTCHAR 016D
ENCODING 365
SWIDTH 822 0
DWIDTH 16 0
BBX 14 16 1 0
BITMAP
1860
1860
1FE0
0FC0
0000
E01C
E01C
E01C
E01C
E01C
E01C
E01C
E01C
F878
7FF8
3FF0
ENDCHAR
STARTCHAR 016E
ENCODING 366
SWIDTH 874 0
DWIDTH 17 0
BBX 15 20 1 0
BITMAP
07C0
0C60
0C20
0C60
07E0
0000
E00E
E00E
E00E
E00E
E00E
E00E
E00E
E00E
E00E
E00E
E00E
FFFE
7FFE
3FF8
ENDCHAR
STARTCHAR 016F
ENCODING 367
SWIDTH 822 0
DWIDTH 16 0
BBX 14 16 1 0
BITMAP
0FC0
0840
0840
0840
0FC0
E01C
E01C
E01C
E01C
E01C
E01C
E01C
E01C
F878
7FF8
3FF0
ENDCHAR
STARTCHAR 0170
ENCODING 368
SWIDTH 874 0
DWIDTH 17 0
BBX 15 19 1 0
BITMAP
071C
0638
0E70
1C60
0000
E00E
E00E
E00E
E00E
E00E
E00E
E00E
E00E
E00E
E00E
E00E
FFFE
7FFE
3FF8
ENDCHAR
STARTCHAR 0171
ENCODING 369
SWIDTH 822 0
DWIDTH 16 0
BBX 14 16 1 0
BITMAP
0E38
0E70
1C60
18E0
0000
E01C
E01C
E01C
E01C
E01C
E01C
E01C
E01C
F878
7FF8
3FF0
ENDCHAR
STARTCHAR 0172
ENCODING 370
SWIDTH 874 0
DWIDTH 17 0
BBX 15 18 1 -4
BITMAP
E00E
E00E
E00E
E00E
E00E
E00E
E00E
E00E
E00E
E00E
E00E
FFFE
7FFE
3FF8
0300
0700
07E0
03E0
ENDCHAR
STARTCHAR 0173
ENCODING 371
SWIDTH 822 0
DWIDTH 16 0
BBX 14 15 1 -4
BITMAP
E01C
E01C
E01C
E01C
E01C
E01C
E01C
E01C
F878
7FF8
3FF0
0600
0E00
0FC0
07C0
ENDCHAR
STARTCHAR 0174
ENCODING 372
SWIDTH 1337 0
DWIDTH 26 0
BBX 26 20 0 0
BITMAP
000C0000
001E0000
003F0000
00330000
00738000
00E1C000
F00E03C0
701E0380
701F0380
383F0700
383F0700
3C738F00
1C738E00
1CE1CE00
0EE1DC00
0EC1FC00
0FC0F800
07C0F800
07807800
03007000
ENDCHAR
STARTCHAR 0175
ENCODING 373
SWIDTH 1080 0
DWIDTH 21 0
BBX 21 17 0 0
BITMAP
007000
007800
00F800
01DC00
018E00
038600
E03038
707838
70F870
38F870
38DCE0
39CCE0
1D8EC0
1F87C0
0F07C0
0F0780
060300
ENDCHAR
STARTCHAR 0176
ENCODING 374
SWIDTH 977 0
DWIDTH 19 0
BBX 17 20 1 0
BITMAP
01C000
03E000
076000
067000
0E3800
000000
F00780
780F00
3C1E00
1E3C00
0F7800
07F000
03E000
01C000
01C000
01C000
01C000
01C000
01C000
01C000
ENDCHAR
STARTCHAR 0177
ENCODING 375
SWIDTH 822 0
DWIDTH 16 0
BBX 14 19 1 -3
BITMAP
0300
0780
0FC0
1CE0
3870
E01C
E01C
E01C
E01C
E01C
E01C
E01C
F01C
7FFC
3FFC
001C
001C
03FC
03F8
ENDCHAR
STARTCHAR 0178
ENCODING 376
SWIDTH 977 0
DWIDTH 19 0
BBX 17 18 1 0
BITMAP
0E3000
0E7000
0E7000
000000
F00780
780F00
3C1E00
1E3C00
0F7800
07F000
03E000
01C000
01C000
01C000
01C000
01C000
01C000
01C000
ENDCHAR
STARTCHAR 0179
ENCODING 377
SWIDTH 822 0
DWIDTH 16 0
BBX 15 20 1 0
BITMAP
00E0
01C0
0180
0380
0300
0000
FFFC
FFFC
FFFC
0078
00F0
01E0
03C0
0F80
1F00
3E00
7800
FFFE
FFFE
FFFE
ENDCHAR
STARTCHAR 017A
ENCODING 378
SWIDTH 720 0
DWIDTH 14 0
BBX 12 16 1 0
BITMAP
0380
0300
0700
0E00
0000
0000
FFF0
FFE0
01C0
0380
0700
1E00
3C00
7000
FFF0
FFF0
ENDCHAR
STARTCHAR 017B
ENCODING 379
SWIDTH 822 0
DWIDTH 16 0
BBX 15 18 1 0
BITMAP
0300
0300
0300
0000
FFFC
FFFC
FFFC
0078
00F0
01E0
03C0
0F80
1F00
3E00
7800
FFFE
FFFE
FFFE
ENDCHAR
STARTCHAR 017C
ENCODING 380
SWIDTH 720 0
DWIDTH 14 0
BBX 12 14 1 0
BITMAP
0E00
0E00
0E00
0000
FFF0
FFE0
01C0
0380
0700
1E00
3C00
7000
FFF0
FFF0
ENDCHAR
STARTCHAR 017D
ENCODING 381
SWIDTH 822 0
DWIDTH 16 0
BBX 15 20 1 0
BITMAP
1870
1CE0
0FC0
0780
0380
0000
FFFC
FFFC
FFFC
0078
00F0
01E0
03C0
0F80
1F00
3E00
7800
FFFE
FFFE
FFFE
ENDCHAR
STARTCHAR 017E
ENCODING 382
SWIDTH 720 0
DWIDTH 14 0
BBX 12 16 1 0
BITMAP
70C0
39C0
1F80
0F00
0E00
0000
FFF0
FFE0
01C0
0380
0700
1E00
3C00
7000
FFF0
FFF0
ENDCHAR
STARTCHAR 0192
ENCODING 402
SWIDTH 565 0
DWIDTH 11 0
BBX 10 16 0 -2
BITMAP
01C0
03C0
0700
0600
0600
3FC0
3FC0
0C00
0C00
0C00
0C00
0C00
1C00
1800
F800
F000
ENDCHAR
STARTCHAR 0218
ENCODING 536
SWIDTH 822 0
DWIDTH 16 0
BBX 14 18 1 -4
BITMAP
7F00
FF00
FF00
C000
C000
E000
FFF8
7FFC
001C
001C
001C
FFFC
FFFC
FFF8
0300
0300
0700
0600
ENDCHAR
STARTCHAR 0219
ENCODING 537
SWIDTH 720 0
DWIDTH 14 0
BBX 13 14 1 -4
BITMAP
FE00
FE00
E000
E000
FFF0
7FF0
0038
0078
FFF0
FFF0
0700
0600
0600
0600
ENDCHAR
STARTCHAR 021A
ENCODING 538
SWIDTH 771 0
DWIDTH 15 0
BBX 14 18 0 -4
BITMAP
FFFC
FFFC
FFFC
0380
0380
0380
0380
0380
0380
0380
0380
0380
0380
0380
0380
0300
0300
0300
ENDCHAR
STARTCHAR 021B
ENCODING 539
SWIDTH 411 0
DWIDTH 8 0
BBX 8 18 0 -4
BITMAP
38
38
38
FF
FF
38
38
38
38
38
38
38
38
38
30
30
30
70
ENDCHAR
STARTCHAR 02C6
ENCODING 710
SWIDTH 617 0
DWIDTH 12 0
BBX 9 5 2 11
BITMAP
1C00
3C00
7E00
E700
C380
ENDCHAR
STARTCHAR 02C7
ENCODING 711
SWIDTH 617 0
DWIDTH 12 0
BBX 9 5 2 11
BITMAP
C380
E700
7E00
3C00
1C00
ENDCHAR
STARTCHAR 02D8
ENCODING 728
SWIDTH 565 0
DWIDTH 11 0
BBX 9 4 1 12
BITMAP
C380
C300
FF00
7F00
ENDCHAR
STARTCHAR 02D9
ENCODING 729
SWIDTH 257 0
DWIDTH 5 0
BBX 3 3 1 11
BITMAP
E0
E0
E0
ENDCHAR
STARTCHAR 02DA
ENCODING 730
SWIDTH 462 0
DWIDTH 9 0
BBX 7 5 1 11
BITMAP
FE
C6
C6
C6
7C
ENDCHAR
STARTCHAR 02DB
ENCODING 731
SWIDTH 411 0
DWIDTH 8 0
BBX 6 4 1 -4
BITMAP
70
E0
FC
FC
ENDCHAR
STARTCHAR 02DC
ENCODING 732
SWIDTH 668 0
DWIDTH 13 0
BBX 10 2 1 13
BITMAP
FFC0
FFC0
ENDCHAR
STARTCHAR 02DD
ENCODING 733
SWIDTH 668 0
DWIDTH 13 0
BBX 10 4 1 12
BITMAP
39C0
31C0
7380
E300
ENDCHAR
STARTCHAR 0394
ENCODING 916
SWIDTH 1028 0
DWIDTH 20 0
BBX 20 14 0 0
BITMAP
007000
00F000
01F800
01FC00
039C00
079E00
070E00
0F0F00
0E0780
1C0380
3C03C0
3801C0
7FFFE0
FFFFF0
ENDCHAR
STARTCHAR 039B
ENCODING 923
SWIDTH 1028 0
DWIDTH 20 0
BBX 19 14 0 0
BITMAP
00F000
00F000
01F800
03F800
039C00
079E00
070E00
0F0F00
1E0700
1C0380
3C03C0
3801C0
7801E0
F000E0
ENDCHAR
STARTCHAR 03A9
ENCODING 937
SWIDTH 874 0
DWIDTH 17 0
BBX 15 14 1 0
BITMAP
3FFC
7FFE
FFFE
E00E
E00E
E00E
E00E
E00E
600E
700C
3018
F83E
F83E
F83E
ENDCHAR
STARTCHAR 03BC
ENCODING 956
SWIDTH 822 0
DWIDTH 16 0
BBX 14 14 1 -3
BITMAP
E01C
E01C
E01C
E01C
E01C
E01C
E01C
E01C
E07C
FFF8
FFF0
E000
E000
E000
ENDCHAR
STARTCHAR 03C0
ENCODING 960
SWIDTH 822 0
DWIDTH 16 0
BBX 14 10 1 0
BITMAP
FFFC
FFFC
E01C
E01C
E01C
E01C
E01C
E01C
E01C
E01C
ENDCHAR
STARTCHAR 1E80
ENCODING 7808
SWIDTH 1337 0
DWIDTH 26 0
BBX 26 19 0 0
BITMAP
00380000
00380000
001C0000
000E0000
00000000
F00E03C0
701E0380
701F0380
383F0700
383F0700
3C738F00
1C738E00
1CE1CE00
0EE1DC00
0EC1FC00
0FC0F800
07C0F800
07807800
03007000
ENDCHAR
STARTCHAR 1E81
ENCODING 7809
SWIDTH 1080 0
DWIDTH 21 0
BBX 21 16 0 0
BITMAP
01C000
00E000
007000
003000
000000
E03038
707838
70F870
38F870
38DCE0
39CCE0
1D8EC0
1F87C0
0F07C0
0F0780
060300
ENDCHAR
STARTCHAR 1E82
ENCODING 7810
SWIDTH 1337 0
DWIDTH 26 0
BBX 26 19 0 0
BITMAP
00070000
00070000
000E0000
000C0000
00000000
F00E03C0
701E0380
701F0380
383F0700
383F0700
3C738F00
1C738E00
1CE1CE00
0EE1DC00
0EC1FC00
0FC0F800
07C0F800
07807800
03007000
ENDCHAR
STARTCHAR 1E83
ENCODING 7811
SWIDTH 1080 0
DWIDTH 21 0
BBX 21 16 0 0
BITMAP
001C00
003800
003000
007000
000000
E03038
707838
70F870
38F870
38DCE0
39CCE0
1D8EC0
1F87C0
0F07C0
0F0780
060300
ENDCHAR
STARTCHAR 1E84
ENCODING 7812
SWIDTH 1337 0
DWIDTH 26 0
BBX 26 17 0 0
BITMAP
00738000
00738000
00738000
F00E03C0
701E0380
701F0380
383F0700
383F0700
3C738F00
1C738E00
1CE1CE00
0EE1DC00
0EC1FC00
0FC0F800
07C0F800
07807800
03007000
ENDCHAR
STARTCHAR 1E85
ENCODING 7813
SWIDTH 1080 0
DWIDTH 21 0
BBX 21 14 0 0
BITMAP
01CE00
01CE00
01CE00
E03038
707838
70F870
38F870
38DCE0
39CCE0
1D8EC0
1F87C0
0F07C0
0F0780
060300
ENDCHAR
STARTCHAR 1EF2
ENCODING 7922
SWIDTH 977 0
DWIDTH 19 0
BBX 17 20 1 0
BITMAP
070000
030000
038000
018000
01C000
000000
F00780
780F00
3C1E00
1E3C00
0F7800
07F000
03E000
01C000
01C000
01C000
01C000
01C000
01C000
01C000
ENDCHAR
STARTCHAR 1EF3
ENCODING 7923
SWIDTH 822 0
DWIDTH 16 0
BBX 14 19 1 -3
BITMAP
0E00
0E00
0700
0380
0000
E01C
E01C
E01C
E01C
E01C
E01C
E01C
F01C
7FFC
3FFC
001C
001C
03FC
03F8
ENDCHAR
STARTCHAR 2013
ENCODING 8211
SWIDTH 720 0
DWIDTH 14 0
BBX 12 2 1 5
BITMAP
FFF0
FFF0
ENDCHAR
STARTCHAR 2014
ENCODING 8212
SWIDTH 977 0
DWIDTH 19 0
BBX 17 2 1 5
BITMAP
FFFF80
FFFF80
ENDCHAR
STARTCHAR 2018
ENCODING 8216
SWIDTH 205 0
DWIDTH 4 0
BBX 3 5 1 9
BITMAP
E0
E0
E0
60
60
ENDCHAR
STARTCHAR 2019
ENCODING 8217
SWIDTH 205 0
DWIDTH 4 0
BBX 3 5 1 9
BITMAP
E0
E0
C0
C0
C0
ENDCHAR
STARTCHAR 201A
ENCODING 8218
SWIDTH 205 0
DWIDTH 4 0
BBX 3 5 1 -2
BITMAP
E0
E0
C0
C0
C0
ENDCHAR
STARTCHAR 201C
ENCODING 8220
SWIDTH 462 0
DWIDTH 9 0
BBX 7 5 1 9
BITMAP
EE
E6
E6
66
66
ENDCHAR
STARTCHAR 201D
ENCODING 8221
SWIDTH 462 0
DWIDTH 9 0
BBX 7 5 1 9
BITMAP
E6
E6
CE
CE
CC
ENDCHAR
STARTCHAR 201E
ENCODING 8222
SWIDTH 462 0
DWIDTH 9 0
BBX 7 5 1 -2
BITMAP
E6
E6
CE
CE
CC
ENDCHAR
STARTCHAR 2020
ENCODING 8224
SWIDTH 411 0
DWIDTH 8 0
BBX 7 14 1 0
BITMAP
30
30
30
30
FE
30
30
30
30
30
30
30
30
30
ENDCHAR
STARTCHAR 2021
ENCODING 8225
SWIDTH 411 0
DWIDTH 8 0
BBX 7 14 1 0
BITMAP
30
30
30
30
FE
30
30
30
30
FE
30
30
30
30
ENDCHAR
STARTCHAR 2022
ENCODING 8226
SWIDTH 360 0
DWIDTH 7 0
BBX 5 5 1 4
BITMAP
78
F8
F8
F8
78
ENDCHAR
STARTCHAR 2026
ENCODING 8230
SWIDTH 1337 0
DWIDTH 26 0
BBX 24 3 1 0
BITMAP
E01C07
E01C07
E01C07
ENDCHAR
STARTCHAR 2030
ENCODING 8240
SWIDTH 1440 0
DWIDTH 28 0
BBX 26 14 1 0
BITMAP
7E0C0000
FF1C0000
C3180000
C3300000
C3700000
FF600000
3CC00000
01DF0F00
01BFBFC0
0330F0C0
0730F0C0
0630F0C0
0C3FFFC0
1C3F9F80
ENDCHAR
STARTCHAR 2039
ENCODING 8249
SWIDTH 308 0
DWIDTH 6 0
BBX 5 9 0 2
BITMAP
08
18
38
70
C0
70
38
18
08
ENDCHAR
STARTCHAR 203A
ENCODING 8250
SWIDTH 308 0
DWIDTH 6 0
BBX 5 9 0 2
BITMAP
80
C0
F0
38
18
38
F0
C0
80
ENDCHAR
STARTCHAR 2044
ENCODING 8260
SWIDTH 308 0
DWIDTH 6 0
BBX 11 14 -2 0
BITMAP
00E0
00C0
0180
0380
0300
0600
0E00
0C00
1800
3800
3000
6000
E000
C000
ENDCHAR
STARTCHAR 2070
ENCODING 8304
SWIDTH 462 0
DWIDTH 9 0
BBX 8 7 1 7
BITMAP
FE
FE
C3
C3
C3
FE
FE
ENDCHAR
STARTCHAR 2074
ENCODING 8308
SWIDTH 514 0
DWIDTH 10 0
BBX 8 7 1 7
BITMAP
C3
C3
C3
FF
FF
03
03
ENDCHAR
STARTCHAR 2075
ENCODING 8309
SWIDTH 514 0
DWIDTH 10 0
BBX 8 7 1 7
BITMAP
F8
F8
C0
FF
03
FF
FF
ENDCHAR
STARTCHAR 2076
ENCODING 8310
SWIDTH 514 0
DWIDTH 10 0
BBX 8 7 1 7
BITMAP
F8
F8
C0
FF
C3
C3
FF
ENDCHAR
STARTCHAR 2077
ENCODING 8311
SWIDTH 462 0
DWIDTH 9 0
BBX 8 7 1 7
BITMAP
FF
FF
06
0C
18
38
70
ENDCHAR
STARTCHAR 2078
ENCODING 8312
SWIDTH 462 0
DWIDTH 9 0
BBX 8 7 1 7
BITMAP
FE
FF
C3
FE
83
C3
FE
ENDCHAR
STARTCHAR 2079
ENCODING 8313
SWIDTH 514 0
DWIDTH 10 0
BBX 8 7 1 7
BITMAP
FE
FF
C3
FF
03
03
1E
ENDCHAR
STARTCHAR 2080
ENCODING 8320
SWIDTH 462 0
DWIDTH 9 0
BBX 8 7 1 0
BITMAP
7C
FE
C3
C3
C3
FF
FE
ENDCHAR
STARTCHAR 2081
ENCODING 8321
SWIDTH 205 0
DWIDTH 4 0
BBX 2 6 1 0
BITMAP
C0
C0
C0
C0
C0
C0
ENDCHAR
STARTCHAR 2082
ENCODING 8322
SWIDTH 514 0
DWIDTH 10 0
BBX 8 7 1 0
BITMAP
1C
1F
03
FF
C0
FF
FF
ENDCHAR
STARTCHAR 2083
ENCODING 8323
SWIDTH 462 0
DWIDTH 9 0
BBX 8 6 1 0
BITMAP
1F
03
FE
03
03
FE
ENDCHAR
STARTCHAR 2084
ENCODING 8324
SWIDTH 514 0
DWIDTH 10 0
BBX 8 6 1 0
BITMAP
C3
C3
C3
FF
FF
03
ENDCHAR
STARTCHAR 2085
ENCODING 8325
SWIDTH 514 0
DWIDTH 10 0
BBX 8 7 1 0
BITMAP
F8
F8
C0
FF
03
FF
FF
ENDCHAR
STARTCHAR 2086
ENCODING 8326
SWIDTH 514 0
DWIDTH 10 0
BBX 8 7 1 0
BITMAP
38
F8
C0
FF
C3
C3
FF
ENDCHAR
STARTCHAR 2087
ENCODING 8327
SWIDTH 462 0
DWIDTH 9 0
BBX 8 7 1 0
BITMAP
FE
FF
06
0C
18
38
70
ENDCHAR
STARTCHAR 2088
ENCODING 8328
SWIDTH 462 0
DWIDTH 9 0
BBX 8 6 1 0
BITMAP
FE
C3
FE
83
C3
FE
ENDCHAR
STARTCHAR 2089
ENCODING 8329
SWIDTH 514 0
DWIDTH 10 0
BBX 8 7 1 0
BITMAP
7C
FF
C3
FF
03
03
1E
ENDCHAR
STARTCHAR 20AC
ENCODING 8364
SWIDTH 822 0
DWIDTH 16 0
BBX 16 14 0 0
BITMAP
0FFE
1FFE
3FFE
3800
3800
7FFC
FFF8
7FF8
FFF0
3800
3800
3C00
1FFF
0FFF
ENDCHAR
STARTCHAR 2117
ENCODING 8471
SWIDTH 874 0
DWIDTH 17 0
BBX 15 14 1 0
BITMAP
3FF8
701C
C006
C006
8FE6
8826
8826
8FE6
8806
8806
C006
C006
601C
3FF8
ENDCHAR
STARTCHAR 2122
ENCODING 8482
SWIDTH 1234 0
DWIDTH 24 0
BBX 22 9 1 5
BITMAP
FF600C
FF701C
18701C
18783C
186C6C
186EEC
1866CC
18638C
18610C
ENDCHAR
STARTCHAR 2153
ENCODING 8531
SWIDTH 874 0
DWIDTH 17 0
BBX 15 14 1 0
BITMAP
6060
60E0
60C0
6180
6380
6300
6600
0E3C
0C06
1806
39FC
3006
6006
E1FE
ENDCHAR
STARTCHAR 2154
ENCODING 8532
SWIDTH 1080 0
DWIDTH 21 0
BBX 19 14 1 0
BITMAP
0F0600
0F0600
030C00
FF1800
C01800
FF3000
FF6000
0063C0
00C0E0
018060
019FC0
030060
060060
061FC0
ENDCHAR
STARTCHAR 215B
ENCODING 8539
SWIDTH 874 0
DWIDTH 17 0
BBX 15 14 1 0
BITMAP
6060
60E0
60C0
6180
6380
6300
6600
0EFE
0CFE
1882
38FE
3182
61C6
E0FE
ENDCHAR
STARTCHAR 215C
ENCODING 8540
SWIDTH 1080 0
DWIDTH 21 0
BBX 19 14 1 0
BITMAP
0F0600
030C00
031C00
FF1800
033000
037000
FF6000
00C000
01DFE0
019860
031FC0
071860
061860
0C1FE0
ENDCHAR
STARTCHAR 215D
ENCODING 8541
SWIDTH 1080 0
DWIDTH 21 0
BBX 19 14 1 0
BITMAP
F80600
F80C00
C01C00
FF1800
013000
FF7000
FF6000
00DFC0
01DFE0
019860
030FC0
071860
061860
0C1FE0
ENDCHAR
STARTCHAR 215E
ENCODING 8542
SWIDTH 977 0
DWIDTH 19 0
BBX 17 14 1 0
BITMAP
FF3800
FF3000
066000
0EE000
1CC000
198000
338000
037F00
067F80
0E6180
0C7F00
184180
386180
307F00
ENDCHAR
STARTCHAR 2202
ENCODING 8706
SWIDTH 668 0
DWIDTH 13 0
BBX 12 15 1 -1
BITMAP
0F00
0FC0
00E0
0060
0060
3E70
7F30
E1E0
C0E0
C060
C060
C0E0
E1C0
7F80
1E00
ENDCHAR
STARTCHAR 220F
ENCODING 8719
SWIDTH 617 0
DWIDTH 12 0
BBX 10 18 1 -4
BITMAP
FFC0
FFC0
E0C0
E0C0
E0C0
E0C0
E0C0
E0C0
E0C0
E0C0
E0C0
E0C0
E0C0
E0C0
E0C0
E0C0
E0C0
E0C0
ENDCHAR
STARTCHAR 2211
ENCODING 8721
SWIDTH 617 0
DWIDTH 12 0
BBX 11 18 1 -4
BITMAP
FFE0
FFE0
E000
7000
3800
1800
1C00
0E00
0600
0700
0E00
1C00
1C00
3800
7000
6000
FFE0
FFE0
ENDCHAR
STARTCHAR 2212
ENCODING 8722
SWIDTH 565 0
DWIDTH 11 0
BBX 9 2 1 6
BITMAP
FF80
FF80
ENDCHAR
STARTCHAR 221A
ENCODING 8730
SWIDTH 565 0
DWIDTH 11 0
BBX 10 14 1 0
BITMAP
00C0
01C0
0180
0180
0180
0300
E300
E300
6600
3600
3600
3600
1C00
1C00
ENDCHAR
STARTCHAR 221E
ENCODING 8734
SWIDTH 771 0
DWIDTH 15 0
BBX 13 9 1 2
BITMAP
38E0
7DF0
C718
8708
8208
8308
C718
7DF0
3060
ENDCHAR
STARTCHAR 222B
ENCODING 8747
SWIDTH 411 0
DWIDTH 8 0
BBX 7 22 0 -5
BITMAP
02
0E
18
18
18
18
18
18
18
18
18
18
18
18
18
18
18
18
18
38
F0
C0
ENDCHAR
STARTCHAR 2248
ENCODING 8776
SWIDTH 565 0
DWIDTH 11 0
BBX 9 7 1 3
BITMAP
7000
FF80
8700
7000
FD80
FF80
0700
ENDCHAR
STARTCHAR 2260
ENCODING 8800
SWIDTH 565 0
DWIDTH 11 0
BBX 11 14 0 0
BITMAP
0060
00C0
01C0
7FC0
7FC0
0700
0600
0C00
7FC0
7FC0
3000
7000
6000
E000
ENDCHAR
STARTCHAR 2264
ENCODING 8804
SWIDTH 565 0
DWIDTH 11 0
BBX 9 14 1 -2
BITMAP
0080
0380
0F00
1C00
7800
E000
7800
1E00
0700
0380
0080
0000
FF80
FF80
ENDCHAR
STARTCHAR 2265
ENCODING 8805
SWIDTH 565 0
DWIDTH 11 0
BBX 9 14 1 -2
BITMAP
8000
E000
7800
1E00
0780
0180
0780
1E00
7800
E000
8000
0000
FF80
FF80
ENDCHAR
STARTCHAR 25CA
ENCODING 9674
SWIDTH 565 0
DWIDTH 11 0
BBX 8 14 1 0
BITMAP
18
1C
3C
36
66
63
C3
C3
63
66
36
3C
1C
18
ENDCHAR
STARTCHAR FB01
ENCODING 64257
SWIDTH 720 0
DWIDTH 14 0
BBX 12 14 1 0
BITMAP
7E60
FE70
E060
E000
FE70
FE70
E070
E070
E070
E070
E070
E070
E070
E070
ENDCHAR
STARTCHAR FB02
ENCODING 64258
SWIDTH 720 0
DWIDTH 14 0
BBX 12 14 1 0
BITMAP
7E70
FE70
E070
E070
FE70
FE70
E070
E070
E070
E070
E070
E070
E070
E070
ENDCHAR
ENDFONT
